<?xml version="1.0" encoding="UTF-8"?>
<svg version="1.1" xmlns="http://www.w3.org/2000/svg" width="512" height="512">
<path d="M0 0 C19.58611145 17.00571899 19.58611145 17.00571899 23.40527344 24.64404297 C23.41929199 23.01776978 23.41929199 23.01776978 23.43359375 21.35864258 C23.47365415 17.312173 23.53945629 13.26645095 23.61279297 9.22045898 C23.64090996 7.47381234 23.66217041 5.72704065 23.67626953 3.98022461 C23.69782864 1.45996512 23.74454177 -1.05880561 23.79589844 -3.57861328 C23.79712708 -4.35181412 23.79835571 -5.12501495 23.79962158 -5.92164612 C23.94762483 -11.47770179 25.26850325 -14.75225964 28.40527344 -19.35595703 C32.62426184 -23.19140104 36.61821423 -23.6512428 42.12402344 -23.57080078 C46.80396177 -23.13005316 49.58808658 -21.23940229 52.71777344 -17.85595703 C55.81842616 -13.26239744 55.54165503 -9.0028215 55.51879883 -3.66186523 C55.51894485 -2.77385223 55.51909088 -1.88583923 55.51924133 -0.97091675 C55.51854412 1.9671675 55.51076061 4.90518853 55.50292969 7.84326172 C55.50106483 9.87921616 55.49964125 11.91517105 55.49864197 13.9511261 C55.49482213 19.31215654 55.48499636 24.67315994 55.47393799 30.03417969 C55.46371243 35.50373977 55.45914189 40.97330421 55.45410156 46.44287109 C55.44337364 57.17660694 55.42630358 67.91032271 55.40527344 78.64404297 C56.39744873 78.61785889 57.38962402 78.5916748 58.41186523 78.56469727 C62.15593161 78.47297512 65.89990286 78.41636009 69.64477539 78.36938477 C71.25367019 78.34451405 72.86245535 78.31060408 74.47094727 78.2668457 C90.49467252 77.84240923 102.10345021 80.8958224 114.07714844 92.22607422 C121.50611198 100.09541446 125.51616517 109.93777786 125.55244446 120.62310791 C125.55612115 121.32577467 125.55979783 122.02844142 125.56358594 122.75240111 C125.5745995 125.10723968 125.57846278 127.46203409 125.58227539 129.81689453 C125.58854222 131.50578958 125.59518921 133.19468326 125.60218811 134.88357544 C125.62321959 140.43392987 125.63359541 145.98428453 125.64355469 151.53466797 C125.64760376 153.44984705 125.65172073 155.36502598 125.65590477 157.28020477 C125.67496106 166.28665344 125.68918644 175.29309393 125.69751674 184.29955888 C125.7072658 194.66718842 125.73352233 205.03460313 125.77401763 215.40215707 C125.80429262 223.43129785 125.81899669 231.46037749 125.82229775 239.48957419 C125.82463692 244.27665732 125.83344735 249.06351109 125.85875893 253.85053253 C125.88224203 258.36501299 125.88619265 262.87911645 125.87599754 267.39364243 C125.87550681 269.03819669 125.88168832 270.6827708 125.89555359 272.32726669 C126.00715689 286.36575264 124.0610733 299.65204324 117.71777344 312.39404297 C117.37383545 313.09883789 117.02989746 313.80363281 116.67553711 314.52978516 C105.76643192 336.14629393 86.79673424 351.9729696 64.40527344 360.64404297 C55.63043738 363.52285354 47.21533762 365.77619169 37.94091797 365.75756836 C36.68006378 365.75749283 35.41920959 365.7574173 34.12014771 365.75733948 C32.75946004 365.75223406 31.39877279 365.74701808 30.03808594 365.74169922 C28.63418631 365.73983209 27.23028602 365.73840958 25.8263855 365.7374115 C22.14719821 365.73360955 18.46805096 365.72379929 14.78887939 365.71270752 C11.02820375 365.70244328 7.26752158 365.69790317 3.50683594 365.69287109 C-3.86036973 365.68217476 -11.22754252 365.66512649 -18.59472656 365.64404297 C-18.89564209 366.427229 -19.19655762 367.21041504 -19.5065918 368.01733398 C-22.62550421 375.54625 -29.53505686 380.96256286 -36.59472656 384.64404297 C-46.22155354 388.31560094 -56.21917295 388.10613287 -66.35791016 388.03515625 C-69.08970063 388.01907256 -71.8200121 388.03507553 -74.55175781 388.05419922 C-89.94797638 388.07441468 -102.00595558 386.68067742 -113.62988281 375.72607422 C-121.53767138 367.31460485 -123.94433399 358.09446997 -123.80566406 346.76513672 C-123.15815789 337.18444351 -119.10249898 328.23089911 -112.36816406 321.37841797 C-103.36553576 313.66187943 -93.90300391 311.01605824 -82.18847656 311.11279297 C-81.14252319 311.10896606 -80.09656982 311.10513916 -79.0189209 311.10119629 C-76.82396472 311.09849385 -74.62897541 311.10573701 -72.43408203 311.12255859 C-69.10277489 311.14399119 -65.77362406 311.12269848 -62.44238281 311.09716797 C-60.29524271 311.09981154 -58.14810392 311.10493712 -56.00097656 311.11279297 C-55.02044312 311.10469604 -54.03990967 311.09659912 -53.02966309 311.08825684 C-44.02405496 311.2084545 -35.38349137 313.50463112 -28.28222656 319.26904297 C-27.52296875 319.85943359 -26.76371094 320.44982422 -25.98144531 321.05810547 C-23.59472656 323.64404297 -23.59472656 323.64404297 -22.50865173 326.04603577 C-21.13490113 329.0135665 -19.82880827 331.2456674 -17.59472656 333.64404297 C-13.24399844 335.08272309 -9.06983501 334.88305767 -4.52441406 334.72607422 C-3.25179718 334.71903976 -1.9791803 334.71200531 -0.66799927 334.70475769 C2.02680667 334.68088421 4.71320747 334.63877531 7.40625 334.56323242 C10.82212745 334.46766997 14.23555647 334.42726995 17.65263557 334.40855885 C20.94809232 334.38804615 24.2429659 334.33876537 27.53808594 334.28857422 C28.74788116 334.27268753 29.95767639 334.25680084 31.20413208 334.24043274 C48.93049773 333.75106209 64.18729958 328.04626177 76.78027344 315.46826172 C91.17980709 299.97590632 94.36465808 282.99727174 94.72167969 262.60498047 C94.75285133 261.09467758 94.75285133 261.09467758 94.78465271 259.55386353 C94.84940545 256.37565126 94.90868337 253.19736503 94.96777344 250.01904297 C95.01102951 247.84846277 95.05464591 245.67788973 95.09863281 243.50732422 C95.20500925 238.21963924 95.30690553 232.93188268 95.40527344 227.64404297 C94.77532471 227.97001465 94.14537598 228.29598633 93.49633789 228.63183594 C89.26312497 230.01805352 85.37288775 229.89179261 80.94824219 229.83935547 C80.04527908 229.83652557 79.14231598 229.83369568 78.21199036 229.83078003 C75.33878109 229.81961904 72.46588789 229.79452194 69.59277344 229.76904297 C67.64030399 229.75900789 65.68782964 229.74988296 63.73535156 229.74169922 C58.95853778 229.71969305 54.18195913 229.68519128 49.40527344 229.64404297 C48.95390015 230.57083862 48.95390015 230.57083862 48.4934082 231.51635742 C38.93272932 250.21084171 17.70859573 263.79056245 -1.69775391 270.35546875 C-11.26562548 273.30343202 -20.61524957 274.79507891 -30.61169434 274.78448486 C-31.49730624 274.78745599 -32.38291814 274.79042711 -33.29536676 274.79348826 C-36.25128285 274.80213246 -39.20715823 274.80367989 -42.16308594 274.80517578 C-44.28753749 274.80980707 -46.41198822 274.81483215 -48.53643799 274.82022095 C-54.30130928 274.83331905 -60.06616894 274.83978513 -65.83105278 274.84423161 C-69.43752574 274.84716719 -73.04399555 274.85127297 -76.65046692 274.85573578 C-87.94802507 274.86940539 -99.24557599 274.87907404 -110.54314184 274.88293767 C-123.55838407 274.88741384 -136.57352105 274.90494358 -149.58873129 274.93393826 C-159.66545877 274.95560266 -169.74215675 274.96564453 -179.81890726 274.96697879 C-185.82931985 274.96802363 -191.83963342 274.97386267 -197.85002136 274.9917984 C-203.51028331 275.00836091 -209.17037268 275.01039507 -214.83065033 275.00165939 C-216.89810907 275.00089332 -218.96557741 275.00517444 -221.03301239 275.01511765 C-251.72317985 275.1539596 -277.77965994 266.2370134 -300.03222656 244.51904297 C-310.59472656 233.5946955 -310.59472656 233.5946955 -310.59472656 229.64404297 C-312.35562622 229.68331909 -312.35562622 229.68331909 -314.15209961 229.72338867 C-318.56710243 229.81486662 -322.98202415 229.87164174 -327.39770508 229.91870117 C-329.29758863 229.94362559 -331.19737852 229.97757821 -333.09692383 230.02124023 C-350.21886247 230.40453357 -362.39072626 228.24595914 -375.26660156 216.06201172 C-382.94411966 207.92938301 -386.7228051 197.95130224 -386.78759766 186.96069336 C-386.79577515 186.19095184 -386.80395264 185.42121033 -386.81237793 184.62814331 C-386.83716827 182.08266966 -386.85373827 179.53725185 -386.86816406 176.99169922 C-386.87348774 176.11795591 -386.87881142 175.24421261 -386.88429642 174.34399223 C-386.91100991 169.71249139 -386.93038413 165.08101724 -386.94482422 160.44946289 C-386.95811809 156.63671638 -386.98588852 152.82451083 -387.02685547 149.01196289 C-387.07650138 144.39070974 -387.10098484 139.76994397 -387.1080513 135.14843559 C-387.11471445 133.39795037 -387.12980564 131.6474739 -387.15394211 129.89714241 C-387.3633755 113.78029719 -384.42730688 102.03501673 -373.01269531 89.97216797 C-364.73181264 82.15469236 -354.71875889 78.46898926 -343.54785156 78.54638672 C-342.39104889 78.54850914 -342.39104889 78.54850914 -341.21087646 78.55067444 C-338.75545318 78.55625763 -336.30012214 78.56880702 -333.84472656 78.58154297 C-332.17675913 78.58656014 -330.50879027 78.59112267 -328.84082031 78.59521484 C-324.75875369 78.60622156 -320.67675575 78.6234746 -316.59472656 78.64404297 C-316.60360901 77.51953232 -316.61249146 76.39502167 -316.62164307 75.23643494 C-316.70280228 64.62833173 -316.76272728 54.02029168 -316.80197525 43.4119482 C-316.82283154 37.95833818 -316.85111377 32.50497922 -316.89648438 27.05151367 C-316.94001145 21.78656618 -316.9638784 16.52185986 -316.97423553 11.25674629 C-316.98161455 9.2501197 -316.9960241 7.243506 -317.01764679 5.23698235 C-317.04677178 2.42177901 -317.05067874 -0.39243342 -317.04882812 -3.20776367 C-317.06320923 -4.03351395 -317.07759033 -4.85926422 -317.09240723 -5.71003723 C-317.05209558 -11.39397988 -315.83172776 -14.66282262 -312.59472656 -19.35595703 C-308.37573816 -23.19140104 -304.38178577 -23.6512428 -298.87597656 -23.57080078 C-294.19603823 -23.13005316 -291.41191342 -21.23940229 -288.28222656 -17.85595703 C-285.26581892 -13.38720497 -285.38798797 -9.1784687 -285.27832031 -3.96923828 C-285.25753922 -3.15222946 -285.23675812 -2.33522064 -285.21534729 -1.49345398 C-285.14999577 1.11479331 -285.09103383 3.72314072 -285.03222656 6.33154297 C-284.98902764 8.10043351 -284.94541291 9.86931394 -284.90136719 11.63818359 C-284.79432913 15.9733676 -284.69302112 20.30865226 -284.59472656 24.64404297 C-284.01102295 23.91958984 -283.42731934 23.19513672 -282.82592773 22.44873047 C-272.90503905 10.214565 -262.25529016 -0.01901522 -249.59472656 -9.35595703 C-248.53382813 -10.13841797 -247.47292969 -10.92087891 -246.37988281 -11.72705078 C-171.92151088 -64.83271284 -69.27690809 -58.90446227 0 0 Z " fill="#D6E2EF" transform="translate(386.5947265625,86.35595703125)"/>
<path d="M0 0 C0 0.33 0 0.66 0 1 C-3.3 1 -6.6 1 -10 1 C-10 42.91 -10 84.82 -10 128 C-42 128.25 -42 128.25 -52 128.29785156 C-54.66668378 128.32726352 -57.33335241 128.35809673 -60 128.390625 C-60.66805664 128.39092712 -61.33611328 128.39122925 -62.02441406 128.39154053 C-80.77845216 128.41447954 -97.91184536 132.95449588 -112.390625 145.3828125 C-119.57565178 152.58935133 -125.007978 161.24700012 -128 171 C-128.22300781 171.67804688 -128.44601563 172.35609375 -128.67578125 173.0546875 C-133.01372435 188.69489052 -129.37143437 204.64127466 -122.01953125 218.6640625 C-113.33961462 233.0018745 -99.35935381 242.07139376 -83.34184265 246.34776306 C-76.8291364 247.61886647 -70.22413375 247.48510268 -63.61328125 247.51171875 C-62.23448185 247.52722459 -60.85569643 247.5440284 -59.47692871 247.56213379 C-54.42227274 247.61957147 -49.36735832 247.65209525 -44.3125 247.6875 C-32.989375 247.790625 -21.66625 247.89375 -10 248 C-10 272.75 -10 297.5 -10 323 C-36.60105366 323.12032643 -36.60105366 323.12032643 -48.01367188 323.14648438 C-55.7753725 323.16435919 -63.53696609 323.18541602 -71.29858398 323.22631836 C-77.56206873 323.25911607 -83.82543856 323.27689583 -90.08900261 323.28463173 C-92.46858464 323.29013878 -94.84816098 323.30089182 -97.22769356 323.31719017 C-129.31758771 323.52807672 -156.00415885 315.745378 -179.4375 292.875 C-190 281.95065253 -190 281.95065253 -190 278 C-191.76089966 278.03927612 -191.76089966 278.03927612 -193.55737305 278.0793457 C-197.97237587 278.17082366 -202.38729759 278.22759877 -206.80297852 278.2746582 C-208.70286207 278.29958262 -210.60265196 278.33353524 -212.50219727 278.37719727 C-229.6241359 278.7604906 -241.7959997 276.60191617 -254.671875 264.41796875 C-262.3493931 256.28534004 -266.12807854 246.30725928 -266.19287109 235.31665039 C-266.20104858 234.54690887 -266.20922607 233.77716736 -266.21765137 232.98410034 C-266.2424417 230.43862669 -266.25901171 227.89320889 -266.2734375 225.34765625 C-266.27876118 224.47391294 -266.28408485 223.60016964 -266.28956985 222.69994926 C-266.31628335 218.06844842 -266.33565757 213.43697427 -266.35009766 208.80541992 C-266.36339153 204.99267342 -266.39116196 201.18046786 -266.43212891 197.36791992 C-266.48177481 192.74666677 -266.50625828 188.125901 -266.51332474 183.50439262 C-266.51998789 181.75390741 -266.53507908 180.00343093 -266.55921555 178.25309944 C-266.76864894 162.13625422 -263.83258031 150.39097376 -252.41796875 138.328125 C-244.13708608 130.51064939 -234.12403233 126.82494629 -222.953125 126.90234375 C-221.79632233 126.90446617 -221.79632233 126.90446617 -220.6161499 126.90663147 C-218.16072662 126.91221466 -215.70539558 126.92476405 -213.25 126.9375 C-211.58203257 126.94251717 -209.91406371 126.9470797 -208.24609375 126.95117188 C-204.16402713 126.96217859 -200.08202919 126.97943164 -196 127 C-196.00888245 125.87548935 -196.01776489 124.7509787 -196.0269165 123.59239197 C-196.10807572 112.98428876 -196.16800072 102.37624871 -196.20724869 91.76790524 C-196.22810498 86.31429521 -196.2563872 80.86093625 -196.30175781 75.4074707 C-196.34528489 70.14252321 -196.36915184 64.87781689 -196.37950897 59.61270332 C-196.38688798 57.60607673 -196.40129754 55.59946303 -196.42292023 53.59293938 C-196.45204522 50.77773604 -196.45595218 47.96352362 -196.45410156 45.14819336 C-196.46848267 44.32244308 -196.48286377 43.49669281 -196.49768066 42.6459198 C-196.45736901 36.96197716 -195.23700119 33.69313441 -192 29 C-187.78101159 25.16455599 -183.78705921 24.70471423 -178.28125 24.78515625 C-173.60131167 25.22590387 -170.81718686 27.11655474 -167.6875 30.5 C-164.67109236 34.96875206 -164.79326141 39.17748833 -164.68359375 44.38671875 C-164.66281265 45.20372757 -164.64203156 46.02073639 -164.62062073 46.86250305 C-164.55526921 49.47075034 -164.49630727 52.07909775 -164.4375 54.6875 C-164.39430108 56.45639054 -164.35068635 58.22527097 -164.30664062 59.99414062 C-164.19960257 64.32932463 -164.09829456 68.66460929 -164 73 C-163.41629639 72.27554688 -162.83259277 71.55109375 -162.23120117 70.8046875 C-152.31031249 58.57052203 -141.6605636 48.33694181 -129 39 C-127.93910156 38.21753906 -126.87820312 37.43507812 -125.78515625 36.62890625 C-88.84229913 10.28029246 -45.15073781 -1.37592542 0 0 Z " fill="#EFF4F9" transform="translate(266,38)"/>
<path d="M0 0 C1.78696541 -0.01073296 1.78696541 -0.01073296 3.61003113 -0.02168274 C4.90878677 -0.02437164 6.20754242 -0.02706055 7.5456543 -0.02983093 C8.93414986 -0.03610107 10.32264376 -0.04274836 11.71113586 -0.04974365 C16.2640365 -0.0707292 20.81693725 -0.08114411 25.36987305 -0.09111023 C26.94244402 -0.0951605 28.51501482 -0.0992775 30.08758545 -0.10346031 C37.48100332 -0.12250361 44.8744113 -0.1367338 52.26784897 -0.14507228 C60.77512281 -0.15482758 69.28213528 -0.18110586 77.78931713 -0.22157317 C84.38150077 -0.25184408 90.97360997 -0.26655169 97.5658617 -0.26985329 C101.49492323 -0.27219219 105.42370529 -0.28099916 109.35269165 -0.30631447 C113.05627369 -0.329792 116.75939618 -0.33375066 120.46303368 -0.32355309 C122.44889167 -0.32283062 124.43472737 -0.34178454 126.42048645 -0.36161804 C143.52603984 -0.26376741 158.10794694 6.13153253 170.2565918 18.08857727 C182.59457549 31.0210617 186.58622235 46.74896819 186.3347168 64.01435852 C185.76119063 79.59943278 177.79779323 92.36866424 167.05737305 103.14717102 C166.5159668 103.7117804 165.97456055 104.27638977 165.41674805 104.85810852 C153.51841254 116.2156106 137.03509094 119.60435874 121.2109375 119.5670929 C119.85597543 119.57445118 118.5010196 119.58304246 117.14607239 119.59275818 C113.49694904 119.61480319 109.84805263 119.61791333 106.19887185 119.61601067 C103.1353984 119.61589012 100.07197157 119.62448861 97.00851125 119.63278818 C89.76963928 119.6519628 82.53088258 119.65492858 75.29199219 119.64814758 C67.86593061 119.64151815 60.44036715 119.66434029 53.0144065 119.70146132 C46.60291862 119.7323284 40.19158953 119.74349987 33.780029 119.7396245 C29.96662141 119.73757367 26.15360135 119.74277343 22.34026527 119.76751709 C-1.44956361 119.90980666 -20.49332139 118.54158831 -38.6262207 101.48701477 C-50.84412234 89.14549187 -56.36233294 74.61142335 -56.31152344 57.3910675 C-55.8689215 42.09710995 -49.74192852 28.40339002 -39.2902832 17.30732727 C-28.42360241 7.30853446 -15.03714308 0.06220582 0 0 Z " fill="#00429D" transform="translate(190.942626953125,166.8528289794922)"/>
<path d="M0 0 C3.9323173 2.65202795 6.18648186 5.30944559 7.6875 9.8125 C7.77909687 12.71871604 7.81346172 15.6005145 7.80102539 18.5065918 C7.80117142 19.3946048 7.80131744 20.2826178 7.8014679 21.19754028 C7.80077068 24.13562454 7.79298718 27.07364556 7.78515625 30.01171875 C7.78329139 32.04767319 7.78186781 34.08362808 7.78086853 36.11958313 C7.77704869 41.48061357 7.76722292 46.84161697 7.75616455 52.20263672 C7.74593899 57.6721968 7.74136845 63.14176124 7.73632812 68.61132812 C7.72560021 79.34506397 7.70853015 90.07877974 7.6875 100.8125 C8.67967529 100.78631592 9.67185059 100.76013184 10.6940918 100.7331543 C14.43815817 100.64143215 18.18212942 100.58481712 21.92700195 100.5378418 C23.53589675 100.51297108 25.14468192 100.47906111 26.75317383 100.43530273 C42.77689908 100.01086626 54.38567678 103.06427943 66.359375 114.39453125 C73.78833854 122.2638715 77.79839174 132.10623489 77.83467102 142.79156494 C77.83834771 143.4942317 77.8420244 144.19689846 77.8458125 144.92085814 C77.85682606 147.27569672 77.86068934 149.63049112 77.86450195 151.98535156 C77.87076878 153.67424661 77.87741578 155.36314029 77.88441467 157.05203247 C77.90544615 162.60238691 77.91582197 168.15274156 77.92578125 173.703125 C77.92983032 175.61830408 77.93394729 177.53348302 77.93813133 179.4486618 C77.95718762 188.45511047 77.97141301 197.46155096 77.9797433 206.46801591 C77.98949237 216.83564545 78.01574889 227.20306016 78.05624419 237.5706141 C78.08651918 245.59975488 78.10122325 253.62883453 78.10452431 261.65803123 C78.10686349 266.44511435 78.11567391 271.23196812 78.14098549 276.01898956 C78.16446859 280.53347002 78.16841921 285.04757348 78.15822411 289.56209946 C78.15773337 291.20665373 78.16391488 292.85122783 78.17778015 294.49572372 C78.28938346 308.53420967 76.34329986 321.82050028 70 334.5625 C69.65606201 335.26729492 69.31212402 335.97208984 68.95776367 336.69824219 C58.04865848 358.31475096 39.0789608 374.14142663 16.6875 382.8125 C7.91266394 385.69131057 -0.50243582 387.94464872 -9.77685547 387.92602539 C-11.03770966 387.92594986 -12.29856384 387.92587433 -13.59762573 387.92579651 C-14.9583134 387.92069109 -16.31900065 387.91547511 -17.6796875 387.91015625 C-19.08358713 387.90828912 -20.48748742 387.90686661 -21.89138794 387.90586853 C-25.57057522 387.90206658 -29.24972248 387.89225633 -32.92889404 387.88116455 C-36.68956969 387.87090031 -40.45025186 387.8663602 -44.2109375 387.86132812 C-51.57814317 387.85063179 -58.94531596 387.83358352 -66.3125 387.8125 C-66.61341553 388.59568604 -66.91433105 389.37887207 -67.22436523 390.18579102 C-70.34327765 397.71470703 -77.25283029 403.1310199 -84.3125 406.8125 C-93.93932698 410.48405797 -103.93694638 410.2745899 -114.07568359 410.20361328 C-116.80747407 410.18752959 -119.53778553 410.20353256 -122.26953125 410.22265625 C-137.66574982 410.24287171 -149.72372902 408.84913445 -161.34765625 397.89453125 C-169.25544482 389.48306188 -171.66210743 380.262927 -171.5234375 368.93359375 C-170.87593133 359.35290054 -166.82027242 350.39935614 -160.0859375 343.546875 C-151.0833092 335.83033646 -141.62077735 333.18451527 -129.90625 333.28125 C-128.86029663 333.2774231 -127.81434326 333.27359619 -126.73669434 333.26965332 C-124.54173816 333.26695088 -122.34674885 333.27419404 -120.15185547 333.29101562 C-116.82054833 333.31244822 -113.4913975 333.29115552 -110.16015625 333.265625 C-108.01301614 333.26826857 -105.86587736 333.27339415 -103.71875 333.28125 C-102.73821655 333.27315308 -101.75768311 333.26505615 -100.74743652 333.25671387 C-91.7418284 333.37691153 -83.10126481 335.67308815 -76 341.4375 C-75.24074219 342.02789062 -74.48148437 342.61828125 -73.69921875 343.2265625 C-71.3125 345.8125 -71.3125 345.8125 -70.22642517 348.2144928 C-68.85267457 351.18202354 -67.54658171 353.41412443 -65.3125 355.8125 C-60.96177187 357.25118012 -56.78760845 357.0515147 -52.2421875 356.89453125 C-50.96957062 356.8874968 -49.69695374 356.88046234 -48.38577271 356.87321472 C-45.69096677 356.84934124 -43.00456597 356.80723234 -40.31152344 356.73168945 C-36.89564599 356.636127 -33.48221697 356.59572698 -30.06513786 356.57701588 C-26.76968111 356.55650318 -23.47480753 356.5072224 -20.1796875 356.45703125 C-18.96989227 356.44114456 -17.76009705 356.42525787 -16.51364136 356.40888977 C1.21272429 355.91951912 16.46952614 350.2147188 29.0625 337.63671875 C43.46203365 322.14436335 46.64688464 305.16572877 47.00390625 284.7734375 C47.0350779 283.26313461 47.0350779 283.26313461 47.06687927 281.72232056 C47.13163202 278.5441083 47.19090993 275.36582206 47.25 272.1875 C47.29325608 270.0169198 47.33687247 267.84634676 47.38085938 265.67578125 C47.48723582 260.38809627 47.58913209 255.10033971 47.6875 249.8125 C47.05755127 250.13847168 46.42760254 250.46444336 45.77856445 250.80029297 C41.54535153 252.18651055 37.65511431 252.06024964 33.23046875 252.0078125 C32.32750565 252.0049826 31.42454254 252.00215271 30.49421692 251.99923706 C27.62100766 251.98807607 24.74811445 251.96297897 21.875 251.9375 C19.92253056 251.92746493 17.97005621 251.91834 16.01757812 251.91015625 C11.24076434 251.88815008 6.46418569 251.85364831 1.6875 251.8125 C2.23164551 250.75393799 2.77579102 249.69537598 3.33642578 248.60473633 C4.06050102 247.18064346 4.78428077 245.75640033 5.5078125 244.33203125 C5.86528564 243.63855591 6.22275879 242.94508057 6.59106445 242.23059082 C14.02222958 227.542761 16.99197398 212.05311218 17.0234375 195.67578125 C17.0300943 194.43869919 17.0367511 193.20161713 17.04360962 191.92704773 C17.05368813 189.31588209 17.05842814 186.70469093 17.05810547 184.09350586 C17.06243796 180.1810213 17.09869947 176.26970443 17.13671875 172.35742188 C17.29207045 137.82476401 9.82552595 104.98713201 -6.625 74.5 C-7.02614014 73.74904053 -7.42728027 72.99808105 -7.84057617 72.22436523 C-9.98678954 68.38769492 -12.18388734 64.89711584 -15.08569336 61.59033203 C-23.28943367 51.99883599 -24.89482083 44.47985126 -24.36206055 31.97558594 C-24.24890031 29.28636621 -24.21849949 26.60545643 -24.20117188 23.9140625 C-24.16878289 22.18219695 -24.13183924 20.45040923 -24.08984375 18.71875 C-24.06905006 17.53110046 -24.06905006 17.53110046 -24.0478363 16.31945801 C-23.78841374 10.77848007 -22.4375069 7.40997524 -19.3125 2.8125 C-13.82201354 -2.17885133 -6.77192663 -2.42767181 0 0 Z " fill="#00337A" transform="translate(434.3125,64.1875)"/>
<path d="M0 0 C11.611875 -0.0825 23.22375 -0.165 35.1875 -0.25 C40.6483313 -0.30462402 40.6483313 -0.30462402 46.21948242 -0.36035156 C50.7310791 -0.37841797 50.7310791 -0.37841797 52.85591125 -0.3817749 C54.31205666 -0.38784065 55.76818445 -0.40174607 57.22419739 -0.42230225 C75.23277231 -0.66341434 90.32858892 4.05377169 103.71313477 16.47875977 C114.1734981 26.7741494 120.97292398 41.0961828 121.29248047 55.80297852 C121.42728592 73.54304714 116.60595255 87.77020047 104.203125 100.7890625 C103.11257813 101.88347656 103.11257813 101.88347656 102 103 C101.45859375 103.56460938 100.9171875 104.12921875 100.359375 104.7109375 C91.535332 113.13388763 78.45862417 118.26823461 66.41235352 118.22705078 C65.31083529 118.22741239 65.31083529 118.22741239 64.18706417 118.2277813 C61.83421713 118.22630076 59.48169583 118.21112665 57.12890625 118.1953125 C55.66662753 118.19236814 54.20434669 118.19033012 52.74206543 118.18920898 C47.34884459 118.17876712 41.95566902 118.15084458 36.5625 118.125 C24.496875 118.08375 12.43125 118.0425 0 118 C0 79.06 0 40.12 0 0 Z " fill="#00347B" transform="translate(256,167)"/>
<path d="M0 0 C3.9323173 2.65202795 6.18648186 5.30944559 7.6875 9.8125 C8.08341321 15.32510318 8.21458342 20.83450026 8.31225586 26.35961914 C8.35365133 28.18408017 8.41475859 30.00821448 8.49682617 31.83129883 C9.1177137 45.87615867 6.85006198 53.23727541 -2.3125 63.8125 C-4.00342301 66.34284262 -5.48839656 68.95047524 -6.9375 71.625 C-7.29811523 72.27968262 -7.65873047 72.93436523 -8.03027344 73.60888672 C-26.0568622 106.80457442 -32.90917972 140.24379575 -32.70361328 177.87036133 C-32.68736578 181.40419224 -32.70366126 184.93690397 -32.72265625 188.47070312 C-32.73380769 200.27290325 -32.45629165 211.38747747 -29.3125 222.8125 C-29.11382324 223.57651123 -28.91514648 224.34052246 -28.71044922 225.12768555 C-28.21973401 226.89412682 -27.64532875 228.63677481 -27.0625 230.375 C-26.70671875 231.46941406 -26.3509375 232.56382812 -25.984375 233.69140625 C-23.64254735 239.95155277 -20.35612568 245.86976389 -17.3125 251.8125 C-22.91341294 251.937426 -28.51348993 252.02745588 -34.11547852 252.0871582 C-36.01536207 252.11208262 -37.91515196 252.14603524 -39.81469727 252.18969727 C-56.9366359 252.5729906 -69.1084997 250.41441617 -81.984375 238.23046875 C-89.6618931 230.09784004 -93.44057854 220.11975928 -93.50537109 209.12915039 C-93.51354858 208.35940887 -93.52172607 207.58966736 -93.53015137 206.79660034 C-93.5549417 204.25112669 -93.57151171 201.70570889 -93.5859375 199.16015625 C-93.59126118 198.28641294 -93.59658485 197.41266964 -93.60206985 196.51244926 C-93.62878335 191.88094842 -93.64815757 187.24947427 -93.66259766 182.61791992 C-93.67589153 178.80517342 -93.70366196 174.99296786 -93.74462891 171.18041992 C-93.79427481 166.55916677 -93.81875828 161.938401 -93.82582474 157.31689262 C-93.83248789 155.56640741 -93.84757908 153.81593093 -93.87171555 152.06559944 C-94.08114894 135.94875422 -91.14508031 124.20347376 -79.73046875 112.140625 C-71.44958608 104.32314939 -61.43653233 100.63744629 -50.265625 100.71484375 C-49.10882233 100.71696617 -49.10882233 100.71696617 -47.9286499 100.71913147 C-45.47322662 100.72471466 -43.01789558 100.73726405 -40.5625 100.75 C-38.89453257 100.75501717 -37.22656371 100.7595797 -35.55859375 100.76367188 C-31.47652713 100.77467859 -27.39452919 100.79193164 -23.3125 100.8125 C-23.32138245 99.68798935 -23.33026489 98.5634787 -23.3394165 97.40489197 C-23.42057572 86.79678876 -23.48050072 76.18874871 -23.51974869 65.58040524 C-23.54060498 60.12679521 -23.5688872 54.67343625 -23.61425781 49.2199707 C-23.65778489 43.95502321 -23.68165184 38.69031689 -23.69200897 33.42520332 C-23.69938798 31.41857673 -23.71379754 29.41196303 -23.73542023 27.40543938 C-23.76454522 24.59023604 -23.76845218 21.77602362 -23.76660156 18.96069336 C-23.78098267 18.13494308 -23.79536377 17.30919281 -23.81018066 16.4584198 C-23.76986901 10.77447716 -22.54950119 7.50563441 -19.3125 2.8125 C-13.82201354 -2.17885133 -6.77192663 -2.42767181 0 0 Z " fill="#4793FE" transform="translate(93.3125,64.1875)"/>
<path d="M0 0 C3.9323173 2.65202795 6.18648186 5.30944559 7.6875 9.8125 C7.77909687 12.71871604 7.81346172 15.6005145 7.80102539 18.5065918 C7.80117142 19.3946048 7.80131744 20.2826178 7.8014679 21.19754028 C7.80077068 24.13562454 7.79298718 27.07364556 7.78515625 30.01171875 C7.78329139 32.04767319 7.78186781 34.08362808 7.78086853 36.11958313 C7.77704869 41.48061357 7.76722292 46.84161697 7.75616455 52.20263672 C7.74593899 57.6721968 7.74136845 63.14176124 7.73632812 68.61132812 C7.72560021 79.34506397 7.70853015 90.07877974 7.6875 100.8125 C8.67967529 100.78631592 9.67185059 100.76013184 10.6940918 100.7331543 C14.43815817 100.64143215 18.18212942 100.58481712 21.92700195 100.5378418 C23.53589675 100.51297108 25.14468192 100.47906111 26.75317383 100.43530273 C42.77689908 100.01086626 54.38567678 103.06427943 66.359375 114.39453125 C73.95061074 122.43576292 77.83122578 132.37926002 77.84863281 143.26806641 C77.85359772 144.01336609 77.85856262 144.75866577 77.86367798 145.52655029 C77.87826517 147.98906384 77.88509747 150.45151286 77.890625 152.9140625 C77.8963813 154.63316854 77.90213897 156.35227458 77.90789795 158.07138062 C77.91839955 161.67763568 77.92424705 165.28386852 77.92773438 168.89013672 C77.93320337 173.48976282 77.95720064 178.08909055 77.98570633 182.68862343 C78.0044236 186.24218575 78.00954322 189.79567769 78.01107025 193.34928513 C78.01407916 195.04359942 78.02204748 196.73791301 78.03525543 198.4321785 C78.14635013 213.78457487 75.92245144 227.14429851 65.25 239 C58.73164102 245.13791002 47.65831551 251.95394866 38.58325195 251.92602539 C37.3523156 251.92591209 37.3523156 251.92591209 36.09651184 251.92579651 C34.7745002 251.91805458 34.7745002 251.91805458 33.42578125 251.91015625 C32.51998825 251.9087413 31.61419525 251.90732635 30.68095398 251.90586853 C27.78726909 251.90027001 24.89366151 251.88771781 22 251.875 C20.03841258 251.86998481 18.07682394 251.86542193 16.11523438 251.86132812 C11.30595979 251.85030107 6.496743 251.83303747 1.6875 251.8125 C2.23164551 250.75393799 2.77579102 249.69537598 3.33642578 248.60473633 C4.06050102 247.18064346 4.78428077 245.75640033 5.5078125 244.33203125 C5.86528564 243.63855591 6.22275879 242.94508057 6.59106445 242.23059082 C14.02222958 227.542761 16.99197398 212.05311218 17.0234375 195.67578125 C17.0300943 194.43869919 17.0367511 193.20161713 17.04360962 191.92704773 C17.05368813 189.31588209 17.05842814 186.70469093 17.05810547 184.09350586 C17.06243796 180.1810213 17.09869947 176.26970443 17.13671875 172.35742188 C17.29207045 137.82476401 9.82552595 104.98713201 -6.625 74.5 C-7.02614014 73.74904053 -7.42728027 72.99808105 -7.84057617 72.22436523 C-9.98678954 68.38769492 -12.18388734 64.89711584 -15.08569336 61.59033203 C-23.28943367 51.99883599 -24.89482083 44.47985126 -24.36206055 31.97558594 C-24.24890031 29.28636621 -24.21849949 26.60545643 -24.20117188 23.9140625 C-24.16878289 22.18219695 -24.13183924 20.45040923 -24.08984375 18.71875 C-24.07598129 17.92698364 -24.06211884 17.13521729 -24.0478363 16.31945801 C-23.78841374 10.77848007 -22.4375069 7.40997524 -19.3125 2.8125 C-13.82201354 -2.17885133 -6.77192663 -2.42767181 0 0 Z " fill="#525CDC" transform="translate(434.3125,64.1875)"/>
<path d="M0 0 C8.96363979 -0.06830174 17.9271013 -0.12311515 26.89094448 -0.15543652 C31.05508174 -0.1709642 35.2190288 -0.19196033 39.38305664 -0.22631836 C43.41611102 -0.25938008 47.44898474 -0.27694938 51.48216438 -0.28463173 C53.00603129 -0.29009268 54.5298905 -0.30075056 56.05367851 -0.31719017 C81.41015972 -0.57938669 103.74524892 5.9435247 122.59375 23.62890625 C140.68158461 41.45247055 150.70664249 62.62119949 151.30078125 87.99145508 C151.41211511 110.04251821 144.23911308 130.0587951 130 147 C129.40574219 147.73992187 128.81148437 148.47984375 128.19921875 149.2421875 C113.29363083 167.07951631 90.72515428 176.6707133 68 179 C62.58260717 179.24148536 57.17832864 179.23567339 51.7578125 179.1953125 C50.25324697 179.19157005 48.74867897 179.18872893 47.24411011 179.18673706 C43.33482822 179.17919738 39.42570127 179.15963536 35.51647949 179.1373291 C30.79888611 179.11300789 26.08124016 179.10404354 21.36360168 179.09242249 C14.24229424 179.07320258 7.12132496 179.03481365 0 179 C0 169.1 0 159.2 0 149 C4.8675 148.98582031 9.735 148.97164062 14.75 148.95703125 C17.86725696 148.93693126 20.98437203 148.91537366 24.1015625 148.88867188 C29.02967739 148.84659323 33.95743181 148.80938724 38.88574219 148.80444336 C42.86725885 148.80010731 46.84796242 148.77121577 50.82922363 148.72656822 C52.33430206 148.71376006 53.83947866 148.70922495 55.34460449 148.71384621 C73.39972734 148.756297 89.97661476 143.90799075 103.375 131.1875 C116.09772544 117.73077117 120.6821824 102.0932174 120.30859375 83.98828125 C119.60444778 68.48246115 111.28314309 54.36683688 100 44 C86.94396034 34.17023604 74.56005205 30.70878088 58.42382812 30.68115234 C57.06305352 30.67184027 55.70228456 30.66166972 54.34152222 30.65071106 C50.66857129 30.62354095 46.99565843 30.60830047 43.32263374 30.59528303 C39.47623481 30.57959529 35.62991297 30.55282322 31.78356934 30.5272522 C24.50942521 30.48056394 17.23526642 30.44377184 9.96104956 30.41057932 C1.67560509 30.37228738 -6.60976174 30.32289586 -14.89514065 30.27259517 C-31.93003752 30.16942345 -48.96497941 30.0801153 -66 30 C-66 29.67 -66 29.34 -66 29 C-44.22 29 -22.44 29 0 29 C0 19.43 0 9.86 0 0 Z " fill="#9FB5DA" transform="translate(256,137)"/>
<path d="M0 0 C1.6629345 0.00561003 3.32587403 0.00987346 4.98881531 0.01286316 C9.32069097 0.02420138 13.65225461 0.05357057 17.98400879 0.0869751 C22.42223899 0.1179167 26.86052066 0.13141945 31.29882812 0.14648438 C39.97411599 0.17845344 48.64909236 0.23112815 57.32421875 0.29296875 C57.32421875 9.86296875 57.32421875 19.43296875 57.32421875 29.29296875 C50.45609375 29.33164063 50.45609375 29.33164063 43.44921875 29.37109375 C40.51427028 29.39631859 37.57941919 29.42269439 34.64453125 29.453125 C30.00618382 29.50111132 25.36806236 29.54528388 20.72949219 29.56396484 C16.98146064 29.57932965 13.23402841 29.61411356 9.48626709 29.66127777 C8.07050852 29.67589078 6.65466429 29.68399793 5.23883057 29.6848526 C-13.49054649 29.70748718 -30.60984222 34.26653409 -45.06640625 46.67578125 C-52.25143303 53.88232008 -57.68375925 62.53996887 -60.67578125 72.29296875 C-60.89878906 72.97101563 -61.12179688 73.6490625 -61.3515625 74.34765625 C-65.6895056 89.98785927 -62.04721562 105.93424341 -54.6953125 119.95703125 C-46.01539587 134.29484325 -32.03513506 143.36436251 -16.0176239 147.64073181 C-9.5047228 148.91187325 -2.89997917 148.77738744 3.7109375 148.8046875 C5.26464728 148.82156883 6.81834369 148.8397236 8.37202454 148.85908508 C12.4242637 148.90621696 16.47644866 148.93626271 20.52886963 148.96252441 C25.41091001 148.99780846 30.29274229 149.05471441 35.17461395 149.10791779 C42.55778757 149.18599914 49.94069696 149.23693051 57.32421875 149.29296875 C57.32421875 159.19296875 57.32421875 169.09296875 57.32421875 179.29296875 C40.32699666 179.45340399 40.32699666 179.45340399 32.96484375 179.48828125 C27.98191851 179.51200091 22.99929292 179.53975812 18.01660156 179.59472656 C-15.06471026 179.9498136 -42.90218716 176.74546705 -68.08203125 152.9765625 C-86.36389645 134.06143992 -94.22390304 110.62821569 -93.8828125 84.6875 C-93.18907808 60.33018659 -81.44470501 40.08919182 -64.5625 23.17578125 C-46.30876253 6.02327475 -24.35514641 -0.2446165 0 0 Z " fill="#D6E2EF" transform="translate(198.67578125,136.70703125)"/>
<path d="M0 0 C0.33 0 0.66 0 1 0 C1.09315313 12.24044816 1.16399331 24.48081038 1.20724869 36.72154236 C1.22802116 42.40693791 1.25614757 48.0920889 1.30175781 53.77734375 C1.34558721 59.27575037 1.36921461 64.77392346 1.37950897 70.27249146 C1.38683433 72.3582018 1.40113659 74.44390105 1.42292023 76.5295105 C1.5795757 92.16630914 0.41009192 106.49282845 -6.6875 120.75 C-7.20340698 121.80719238 -7.20340698 121.80719238 -7.72973633 122.88574219 C-18.63884152 144.50225096 -37.6085392 160.32892663 -60 169 C-68.77483606 171.87881057 -77.18993582 174.13214872 -86.46435547 174.11352539 C-87.72520966 174.11344986 -88.98606384 174.11337433 -90.28512573 174.11329651 C-91.6458134 174.10819109 -93.00650065 174.10297511 -94.3671875 174.09765625 C-95.77108713 174.09578912 -97.17498742 174.09436661 -98.57888794 174.09336853 C-102.25807522 174.08956658 -105.93722248 174.07975633 -109.61639404 174.06866455 C-113.37706969 174.05840031 -117.13775186 174.0538602 -120.8984375 174.04882812 C-128.26564317 174.03813179 -135.63281596 174.02108352 -143 174 C-142.67475342 172.93072266 -142.34950684 171.86144531 -142.0144043 170.75976562 C-141.23816261 167.88272064 -140.75054106 165.76004746 -140.76953125 162.84375 C-140.77146484 162.13089844 -140.77339844 161.41804687 -140.77539062 160.68359375 C-140.78763672 159.96300781 -140.79988281 159.24242187 -140.8125 158.5 C-140.8134668 157.41912109 -140.8134668 157.41912109 -140.81445312 156.31640625 C-140.85126031 151.79321175 -141.32302258 147.48121911 -142 143 C-141.28749084 142.99413376 -140.57498169 142.98826752 -139.84088135 142.98222351 C-133.0749946 142.92394566 -126.30938088 142.85167333 -119.5438118 142.76428509 C-116.0668298 142.71985165 -112.58995772 142.68053917 -109.11279297 142.65356445 C-105.10094962 142.6222046 -101.08970468 142.56743079 -97.078125 142.51171875 C-95.84950745 142.50532883 -94.62088989 142.4989389 -93.3550415 142.49235535 C-75.55711914 142.19388078 -60.25725 136.44144824 -47.625 123.82421875 C-33.15812965 108.25941628 -30.03408643 91.22029511 -29.68359375 70.7421875 C-29.6524221 69.19859055 -29.6524221 69.19859055 -29.62062073 67.62380981 C-29.55584737 64.37426675 -29.49658018 61.12465105 -29.4375 57.875 C-29.3942459 55.65624284 -29.35062955 53.43749271 -29.30664062 51.21875 C-29.20024136 45.81257417 -29.09834841 40.40632797 -29 35 C-28.10579346 34.52876709 -27.21158691 34.05753418 -26.2902832 33.57202148 C-25.10618419 32.94273063 -23.92218899 32.31324438 -22.73828125 31.68359375 C-21.57594971 31.06798584 -20.41361816 30.45237793 -19.21606445 29.81811523 C-9.55203503 24.35481704 -5.01912891 15.05054896 -1 5 C-0.26299737 2.1881203 -0.26299737 2.1881203 0 0 Z " fill="#00429D" transform="translate(511,278)"/>
<path d="M0 0 C3.9323173 2.65202795 6.18648186 5.30944559 7.6875 9.8125 C8.08341321 15.32510318 8.21458342 20.83450026 8.31225586 26.35961914 C8.35365133 28.18408017 8.41475859 30.00821448 8.49682617 31.83129883 C9.1177137 45.87615867 6.85006198 53.23727541 -2.3125 63.8125 C-4.00345669 66.34289303 -5.48768457 68.95082157 -6.9375 71.625 C-7.29593994 72.27243164 -7.65437988 72.91986328 -8.02368164 73.58691406 C-11.52506386 80.01059489 -14.63636144 86.61704567 -17.68359375 93.265625 C-18.85152569 95.80874778 -20.03585212 98.3233574 -21.3125 100.8125 C-21.9725 100.8125 -22.6325 100.8125 -23.3125 100.8125 C-23.40526491 89.06853661 -23.47629816 77.32466068 -23.51974869 65.58040524 C-23.54060498 60.12679521 -23.5688872 54.67343625 -23.61425781 49.2199707 C-23.65778489 43.95502321 -23.68165184 38.69031689 -23.69200897 33.42520332 C-23.69938798 31.41857673 -23.71379754 29.41196303 -23.73542023 27.40543938 C-23.76454522 24.59023604 -23.76845218 21.77602362 -23.76660156 18.96069336 C-23.78098267 18.13494308 -23.79536377 17.30919281 -23.81018066 16.4584198 C-23.76986901 10.77447716 -22.54950119 7.50563441 -19.3125 2.8125 C-13.82201354 -2.17885133 -6.77192663 -2.42767181 0 0 Z " fill="#00429D" transform="translate(93.3125,64.1875)"/>
<path d="M0 0 C3.9323173 2.65202795 6.18648186 5.30944559 7.6875 9.8125 C7.77909687 12.71871604 7.81346172 15.6005145 7.80102539 18.5065918 C7.80117142 19.3946048 7.80131744 20.2826178 7.8014679 21.19754028 C7.80077068 24.13562454 7.79298718 27.07364556 7.78515625 30.01171875 C7.78329139 32.04767319 7.78186781 34.08362808 7.78086853 36.11958313 C7.77704869 41.48061357 7.76722292 46.84161697 7.75616455 52.20263672 C7.74593899 57.6721968 7.74136845 63.14176124 7.73632812 68.61132812 C7.72560021 79.34506397 7.70853015 90.07877974 7.6875 100.8125 C7.0275 100.8125 6.3675 100.8125 5.6875 100.8125 C5.41188232 100.17973145 5.13626465 99.54696289 4.85229492 98.89501953 C0.04658458 87.94025867 -4.78861431 77.08099291 -11.0625 66.875 C-11.4850708 66.18615723 -11.9076416 65.49731445 -12.34301758 64.78759766 C-14.94140004 60.65614155 -14.94140004 60.65614155 -18.1730957 57.01953125 C-23.92135773 51.18595315 -24.10988258 45.62284907 -24.15023804 37.81352234 C-24.13194831 36.0182653 -24.10176255 34.22309408 -24.06030273 32.42822266 C-23.99997755 29.68647944 -23.99874476 26.94934554 -24.00585938 24.20703125 C-23.99045424 22.4478828 -23.97168877 20.68875989 -23.94921875 18.9296875 C-23.94790451 18.11909882 -23.94659027 17.30851013 -23.94523621 16.47335815 C-23.78209159 10.82885666 -22.51369233 7.48204337 -19.3125 2.8125 C-13.82201354 -2.17885133 -6.77192663 -2.42767181 0 0 Z " fill="#00347B" transform="translate(434.3125,64.1875)"/>
<path d="M0 0 C4.56454749 2.26268341 7.135905 5.62195923 9.0078125 10.33984375 C9.52390105 13.38438748 9.52496877 16.32144461 9.4453125 19.40234375 C9.45240234 20.17900391 9.45949219 20.95566406 9.46679688 21.75585938 C9.40492208 27.37694658 8.42634195 31.68827891 4.5078125 35.984375 C-0.43158393 39.83041545 -3.72798664 40.86186049 -9.9921875 40.33984375 C-15.51091358 38.09493822 -17.67434465 35.94846311 -20.18286133 30.63574219 C-21.57843202 26.67678389 -21.57141276 22.87417015 -21.4921875 18.71484375 C-21.50765625 17.895 -21.523125 17.07515625 -21.5390625 16.23046875 C-21.50405971 10.78753533 -20.58717777 7.6512032 -16.9921875 3.33984375 C-11.81446797 -1.23581537 -6.51973567 -2.16046143 0 0 Z " fill="#4591FD" transform="translate(203.9921875,206.66015625)"/>
<path d="M0 0 C3.51520834 2.3707219 5.79390381 5.02530762 7.6875 8.8125 C7.97873419 11.84695945 7.96548167 14.89068232 8 17.9375 C8.02900391 18.76765625 8.05800781 19.5978125 8.08789062 20.453125 C8.14862416 26.41435457 7.11361506 30.8677785 3.6875 35.8125 C0.73476722 38.55025866 -2.6037681 39.64514997 -6.5859375 40.03515625 C-11.85235008 39.81047995 -15.02769887 38.05889345 -18.90234375 34.578125 C-22.72111469 29.79672759 -22.67788609 24.79236929 -22.6875 18.9375 C-22.71199219 18.16019531 -22.73648437 17.38289063 -22.76171875 16.58203125 C-22.79072231 10.82965919 -21.60376314 7.5425667 -18.3125 2.8125 C-12.68414216 -2.29228967 -6.92087468 -2.48106828 0 0 Z " fill="#505BDB" transform="translate(321.3125,207.1875)"/>
</svg>
