<?xml version="1.0" encoding="UTF-8"?>
<svg version="1.1" xmlns="http://www.w3.org/2000/svg" width="500" height="500">
<path d="M0 0 C2.24533196 -0.00271466 4.49066303 -0.00627824 6.73599243 -0.01062012 C12.79791601 -0.01968991 18.85977103 -0.01622228 24.92169571 -0.00986195 C31.28658473 -0.00477383 37.65146815 -0.00950118 44.01635742 -0.01263428 C55.38508237 -0.0164979 66.75377274 -0.01030971 78.12249076 -0.0001156 C88.40361595 0.0088183 98.68469594 0.00726576 108.96582031 -0.00195312 C120.94191962 -0.01268703 132.91799155 -0.0166238 144.89409733 -0.0107286 C151.22012986 -0.00762173 157.54613136 -0.00716414 163.87216187 -0.01380157 C169.82140553 -0.01960844 175.77056446 -0.01551732 181.71979904 -0.00401306 C183.89410639 -0.00138428 186.06842096 -0.00210083 188.24272537 -0.00653839 C221.69765845 -0.06848563 248.15978131 7.88247003 272.26953125 31.63378906 C296.07969221 55.8748712 301.84552838 83.80883401 301.77832031 116.73925781 C301.78103497 118.98458977 301.78459855 121.22992084 301.78894043 123.47525024 C301.79801023 129.53717382 301.79454259 135.59902884 301.78818226 141.66095352 C301.78309415 148.02584254 301.78782149 154.39072597 301.79095459 160.75561523 C301.79481821 172.12434018 301.78863003 183.49303055 301.77843592 194.86174858 C301.76950201 205.14287376 301.77105455 215.42395376 301.78027344 225.70507812 C301.79100734 237.68117743 301.79494411 249.65724936 301.78904891 261.63335514 C301.78594204 267.95938768 301.78548445 274.28538918 301.79212189 280.61141968 C301.79792875 286.56066335 301.79383763 292.50982227 301.78233337 298.45905685 C301.77970459 300.6333642 301.78042114 302.80767877 301.7848587 304.98198318 C301.81149818 319.3687721 301.70422516 333.44851305 296.89453125 347.19628906 C296.63438232 347.94934326 296.3742334 348.70239746 296.10620117 349.47827148 C291.25367046 362.99451137 284.28484966 373.79570713 274.51953125 384.25878906 C273.63136719 385.22816406 272.74320312 386.19753906 271.828125 387.19628906 C253.70049147 406.19468228 228.92527807 417.70237631 202.61856079 418.44263458 C196.75884137 418.54320717 190.89942576 418.52953861 185.0390625 418.51757812 C182.79373054 418.52029278 180.54839947 418.52385637 178.30307007 418.52819824 C172.24114649 418.53726804 166.17929147 418.5338004 160.11736679 418.52744007 C153.75247777 418.52235196 147.38759435 418.52707931 141.02270508 418.5302124 C129.65398013 418.53407602 118.28528976 418.52788784 106.91657174 418.51769373 C96.63544655 418.50875982 86.35436656 418.51031236 76.07324219 418.51953125 C64.09714288 418.53026516 52.12107095 418.53420192 40.14496517 418.52830672 C33.81893264 418.52519985 27.49293114 418.52474226 21.16690063 418.5313797 C15.21765697 418.53718657 9.26849804 418.53309544 3.31926346 418.52159119 C1.14495611 418.5189624 -1.02935846 418.51967895 -3.20366287 418.52411652 C-17.55123353 418.55068337 -31.63128707 418.4469047 -45.35546875 413.69628906 C-46.48118286 413.30993286 -46.48118286 413.30993286 -47.62963867 412.91577148 C-61.45094819 407.93882205 -72.77085697 400.18688863 -83.48046875 390.25878906 C-84.29 389.51886719 -85.09953125 388.77894531 -85.93359375 388.01660156 C-104.95046388 369.86413462 -115.92156792 345.75239169 -116.66431427 319.35757446 C-116.76488951 313.49793648 -116.75121813 307.63860217 -116.73925781 301.77832031 C-116.74197247 299.53298835 -116.74553605 297.28765728 -116.74987793 295.04232788 C-116.75894773 288.98040431 -116.75548009 282.91854928 -116.74911976 276.8566246 C-116.74403165 270.49173558 -116.74875899 264.12685216 -116.75189209 257.76196289 C-116.75575571 246.39323794 -116.74956753 235.02454757 -116.73937342 223.65582955 C-116.73043951 213.37470437 -116.73199205 203.09362437 -116.74121094 192.8125 C-116.75194484 180.83640069 -116.75588161 168.86032877 -116.74998641 156.88422298 C-116.74687954 150.55819045 -116.74642195 144.23218895 -116.75305939 137.90615845 C-116.75886625 131.95691478 -116.75477513 126.00775585 -116.74327087 120.05852127 C-116.74064209 117.88421392 -116.74135864 115.70989935 -116.7457962 113.53559494 C-116.80233502 83.00151019 -110.89657318 56.97601157 -89.48046875 34.25878906 C-88.59359375 33.29199219 -87.70671875 32.32519531 -86.79296875 31.32910156 C-62.85569961 6.20888598 -33.41660377 -0.06820032 0 0 Z " fill="#696BFB" transform="translate(157.48046875,40.7412109375)"/>
<path d="M0 0 C0 0.66 0 1.32 0 2 C1.1446875 2.3403125 1.1446875 2.3403125 2.3125 2.6875 C5.80817551 4.39469036 6.58696657 5.35586114 8 9 C8.70047542 16.6541585 7.47727685 23.32286983 5.2265625 30.6015625 C4.94275726 31.56347504 4.65895203 32.52538757 4.36654663 33.51644897 C3.46663099 36.55699309 2.54670941 39.59099955 1.625 42.625 C0.71464354 45.66725281 -0.19146662 48.71072512 -1.09512329 51.75497437 C-1.65573277 53.63859139 -2.22085324 55.52087414 -2.79135132 57.40151978 C-4.25325226 62.26152396 -5.52043016 67.10791266 -6.57885742 72.07141113 C-7.06327727 74.2897732 -7.66139596 76.45206023 -8.33203125 78.62109375 C-8.57034668 79.40097656 -8.80866211 80.18085938 -9.05419922 80.984375 C-9.30443848 81.79390625 -9.55467773 82.6034375 -9.8125 83.4375 C-11.74133831 89.7726051 -13.62243943 96.11381491 -15.375 102.5 C-20.00331156 119.32260835 -24.77753988 136.10682329 -29.8125 152.8125 C-30.09013184 153.74215576 -30.36776367 154.67181152 -30.65380859 155.62963867 C-35.14263344 170.38272776 -35.14263344 170.38272776 -40.83984375 174.89453125 C-45.08771592 177.06839712 -49.3933773 176.80720277 -54 176 C-58.86108919 173.70203056 -61.70203056 170.86108919 -64 166 C-65.85451382 157.28698246 -62.3616252 148.82797719 -59.75390625 140.62890625 C-57.94543846 134.9225178 -56.39707212 129.16328452 -54.875 123.375 C-48.19454143 98.20519146 -40.84213534 73.20914839 -33.5234375 48.21875 C-31.91300098 42.71383442 -30.32795279 37.20180398 -28.75 31.6875 C-28.49887451 30.81480469 -28.24774902 29.94210938 -27.98901367 29.04296875 C-26.71871555 24.60834808 -25.53906388 20.16760339 -24.4375 15.6875 C-22.73165043 9.43933006 -20.03329056 4.80736939 -15.1875 0.5 C-10.2026946 -1.84579078 -5.2806381 -1.7602127 0 0 Z " fill="#B1B3FD" transform="translate(278,162)"/>
<path d="M0 0 C6.6827252 4.08363167 12.14777093 9.84106881 17.64453125 15.34375 C18.53613449 16.23106812 19.42773773 17.11838623 20.34635925 18.03259277 C22.69493908 20.37400402 25.03835904 22.72044484 27.38049316 25.06829834 C29.29123111 26.97862909 31.21112967 28.87962427 33.13089466 30.78087616 C35.4340548 33.06571646 37.72616063 35.36159022 40.01953125 37.65625 C40.87577591 38.50328491 41.73202057 39.35031982 42.61421204 40.22302246 C47.51533226 45.16255228 51.51024679 49.22190384 52.4375 56.375 C51.35141368 65.37400093 45.69220958 71.81053881 38.87890625 77.375 C34.845145 80.86365837 31.20584303 84.80166548 27.47084045 88.60610962 C25.12507921 90.99230644 22.77106262 93.37029229 20.41674805 95.74804688 C19.17967387 97.0002689 17.94529714 98.25516144 16.71362305 99.51269531 C14.9216706 101.3411695 13.12008274 103.15966141 11.31640625 104.9765625 C10.77246719 105.53598541 10.22852814 106.09540833 9.66810608 106.67178345 C5.51214677 110.82954003 1.64680012 113.7059111 -4.375 114.375 C-10.05507955 113.78740556 -14.39069167 112.65057264 -18.4375 108.5 C-21.36886903 103.80980956 -21.64671723 99.38931025 -21 94 C-19.1991892 89.06734433 -15.80855951 85.51559339 -12 82 C-11.443125 81.401875 -10.88625 80.80375 -10.3125 80.1875 C-9 79 -9 79 -7 79 C-6.67 78.01 -6.34 77.02 -6 76 C-4.58203125 74.640625 -4.58203125 74.640625 -2.8125 73.25 C0.3614127 70.63428053 2.96269583 67.84351311 5.578125 64.6796875 C7.586833 62.30676321 9.77000165 60.16441016 12 58 C10.42840852 54.14245727 7.98922513 51.85637068 5 49 C3.83066057 47.83601224 2.66412768 46.66920014 1.5 45.5 C-0.55055754 43.4449944 -2.61058685 41.40361284 -4.6875 39.375 C-7 37 -7 37 -8.875 34.5625 C-10.70368117 32.35732565 -12.34179543 30.88014805 -14.5625 29.125 C-18.57780252 25.74732063 -20.48120018 22.28140887 -21.3125 17.0234375 C-21.71790777 10.46089928 -19.11155244 6.57345454 -15 1.5625 C-10.2161156 -0.92910646 -5.23928488 -1.17836395 0 0 Z " fill="#EBEDFE" transform="translate(318,193)"/>
<path d="M0 0 C4.16996352 1.69563962 6.4131152 4.14807045 8.9375 7.8125 C10.61595879 12.84787638 10.9190046 16.85112881 8.81054688 21.78125 C6.84181764 25.28121308 4.49626295 27.86952826 1.6328125 30.625 C1.11621063 31.13498535 0.59960876 31.6449707 0.06735229 32.17041016 C-1.57308045 33.78760836 -3.22336208 35.39425433 -4.875 37 C-6.51772926 38.60742775 -8.15820171 40.217066 -9.79592896 41.82958984 C-10.81109715 42.82805776 -11.82934618 43.8234073 -12.85128784 44.81494141 C-15.29059262 47.203646 -17.57333103 49.64463051 -19.72705078 52.2890625 C-22 55 -22 55 -24 56 C-22.86528532 59.40414403 -21.82774013 60.24276648 -19.125 62.5 C-13.73874521 67.0316092 -13.73874521 67.0316092 -12 69 C-12 69.66 -12 70.32 -12 71 C-11.01 71.33 -10.02 71.66 -9 72 C-7.29386917 73.62624511 -5.63281147 75.30015228 -4 77 C-3.07960937 77.87398438 -2.15921875 78.74796875 -1.2109375 79.6484375 C0.19285156 80.99808594 0.19285156 80.99808594 1.625 82.375 C2.56601563 83.26960938 3.50703125 84.16421875 4.4765625 85.0859375 C8.50686246 89.7401229 10.66815372 94.61594938 10.421875 100.9453125 C9.45547725 105.65202746 6.63779078 109.45437926 3.1953125 112.703125 C0.37046986 114.37189325 -1.60761649 114.43334302 -4.875 114.4375 C-6.38707031 114.46650391 -6.38707031 114.46650391 -7.9296875 114.49609375 C-15.75167722 113.23223536 -21.28037776 106.04194815 -26.6328125 100.703125 C-27.54707001 99.79552429 -28.46132751 98.88792358 -29.40328979 97.95281982 C-31.33150079 96.03653444 -33.25558419 94.11621102 -35.17724609 92.19335938 C-37.62592052 89.74448177 -40.08806744 87.30965697 -42.5539875 84.87816238 C-44.92266936 82.53721589 -47.27677479 80.18179609 -49.6328125 77.828125 C-50.51204376 76.96326477 -51.39127502 76.09840454 -52.29714966 75.20733643 C-57.40623687 70.05996693 -62.38669939 64.98306744 -63.3125 57.4609375 C-63.209375 56.77257812 -63.10625 56.08421875 -63 55.375 C-62.9175 54.68148437 -62.835 53.98796875 -62.75 53.2734375 C-60.27497368 45.77101396 -53.7526179 40.47918657 -48.30859375 35.078125 C-47.35706153 34.12778681 -46.4059008 33.17707654 -45.45509338 32.22601318 C-43.47029463 30.24277157 -41.48220343 28.26291361 -39.49145508 26.28564453 C-36.94199575 23.75323196 -34.39922677 21.21422843 -31.85865688 18.67290115 C-29.89869868 16.71321492 -27.93614501 14.7561458 -25.97270393 12.79994965 C-24.57857786 11.41054148 -23.1859377 10.01964287 -21.7933197 8.62872314 C-20.94556473 7.78734802 -20.09780975 6.9459729 -19.22436523 6.07910156 C-18.47920151 5.33774963 -17.73403778 4.59639771 -16.96629333 3.83258057 C-11.76492271 -1.0150841 -6.81489725 -0.85516822 0 0 Z " fill="#EEEEFE" transform="translate(193,193)"/>
<path d="M0 0 C2.26804601 0.00056506 4.53609239 0.0002457 6.80413818 -0.00088501 C12.92298125 -0.00145581 19.04174495 0.0102542 25.16056967 0.02426291 C31.56937342 0.03681589 37.97817926 0.03794435 44.38699341 0.04031372 C55.1313845 0.04581176 65.87574113 0.05828065 76.62011719 0.07617188 C87.68001157 0.09456918 98.73989807 0.10870676 109.79980469 0.1171875 C110.82480097 0.11797567 110.82480097 0.11797567 111.87050425 0.11877976 C115.2990517 0.1213901 118.72759922 0.12391746 122.15614676 0.12640357 C150.53657213 0.14708993 178.91696615 0.18242495 207.29736328 0.22705078 C207.29736328 0.55705078 207.29736328 0.88705078 207.29736328 1.22705078 C203.03311745 2.03559064 198.99270939 2.3608242 194.65498352 2.38526917 C194.01205469 2.39020714 193.36912586 2.39514512 192.70671433 2.40023273 C190.5641629 2.41551791 188.42164128 2.42394599 186.27905273 2.43237305 C184.73531845 2.44196344 183.19158673 2.45197419 181.64785767 2.46237183 C177.44865827 2.48941985 173.24944779 2.51046077 169.05020928 2.53037381 C164.6017468 2.55242298 160.1533165 2.57975976 155.70487976 2.60643005 C148.18681329 2.65075044 140.66873434 2.69146336 133.15063477 2.72973633 C123.67045934 2.77801209 114.19032524 2.83187628 104.71019173 2.88772011 C95.52702141 2.94179326 86.34383696 2.993289 77.16064453 3.04345703 C75.81558767 3.05080643 75.81558767 3.05080643 74.44335794 3.05830431 C56.20502953 3.1571591 37.96714882 3.24709996 19.72851562 3.21875 C18.49871947 3.21704646 17.26892332 3.21534292 16.00186062 3.21358776 C10.48068873 3.20456601 4.95966394 3.18894582 -0.56144714 3.16151428 C-2.42597434 3.15587214 -4.29050171 3.15028814 -6.1550293 3.14477539 C-6.97873583 3.13822119 -7.80244236 3.13166698 -8.6511097 3.12491417 C-12.1914104 3.11797897 -15.29140635 3.33598647 -18.70263672 4.22705078 C-19.36263672 4.22705078 -20.02263672 4.22705078 -20.70263672 4.22705078 C-21.69263672 4.55705078 -22.68263672 4.88705078 -23.70263672 5.22705078 C-23.70263672 4.56705078 -23.70263672 3.90705078 -23.70263672 3.22705078 C-24.69263672 3.22705078 -25.68263672 3.22705078 -26.70263672 3.22705078 C-27.03263672 3.88705078 -27.36263672 4.54705078 -27.70263672 5.22705078 C-28.19763672 4.73205078 -28.19763672 4.73205078 -28.70263672 4.22705078 C-29.36263672 4.88705078 -30.02263672 5.54705078 -30.70263672 6.22705078 C-33.03597005 6.22705078 -35.36930339 6.22705078 -37.70263672 6.22705078 C-40.05688472 6.81561278 -42.39234587 7.48445729 -44.70263672 8.22705078 C-46.01377261 8.60679268 -47.32624918 8.98194162 -48.64013672 9.35205078 C-49.65076172 9.64080078 -50.66138672 9.92955078 -51.70263672 10.22705078 C-52.03263672 11.54705078 -52.36263672 12.86705078 -52.70263672 14.22705078 C-53.27111328 14.01822266 -53.83958984 13.80939453 -54.42529297 13.59423828 C-58.73537328 12.89930252 -62.23849604 15.88641518 -65.70263672 18.22705078 C-67.3892613 19.87351763 -69.05775378 21.53888145 -70.70263672 23.22705078 C-71.93300162 23.96896609 -73.18442345 24.67686842 -74.45263672 25.35205078 C-77.96140448 26.89717127 -77.96140448 26.89717127 -78.70263672 30.22705078 C-79.67201172 30.70142578 -80.64138672 31.17580078 -81.64013672 31.66455078 C-84.98578682 33.37151512 -85.20834948 34.02500669 -86.70263672 37.22705078 C-88.82763672 37.97705078 -88.82763672 37.97705078 -90.70263672 38.22705078 C-90.80576172 38.76330078 -90.90888672 39.29955078 -91.01513672 39.85205078 C-91.89692011 42.89821158 -93.11679846 45.48233072 -94.70263672 48.22705078 C-96.18763672 48.72205078 -96.18763672 48.72205078 -97.70263672 49.22705078 C-100.92798363 53.970208 -102.23837823 57.53988432 -102.70263672 63.22705078 C-104.18763672 63.72205078 -104.18763672 63.72205078 -105.70263672 64.22705078 C-106.19763672 65.21705078 -106.19763672 65.21705078 -106.70263672 66.22705078 C-105.71263672 66.55705078 -104.72263672 66.88705078 -103.70263672 67.22705078 C-105.16447258 69.2457765 -106.52242675 71.06686414 -108.39013672 72.72705078 C-110.14163979 74.39657652 -110.14163979 74.39657652 -109.70263672 78.22705078 C-110.36263672 79.21705078 -111.02263672 80.20705078 -111.70263672 81.22705078 C-111.37883546 82.56273099 -111.04606121 83.89628089 -110.70263672 85.22705078 C-111.69263672 86.21705078 -111.69263672 86.21705078 -112.70263672 87.22705078 C-113.35031465 89.79766389 -113.35031465 89.79766389 -113.70263672 92.22705078 C-113.04263672 92.55705078 -112.38263672 92.88705078 -111.70263672 93.22705078 C-112.69263672 94.21705078 -112.69263672 94.21705078 -113.70263672 95.22705078 C-113.90629197 98.16124079 -113.98328972 101.00194986 -113.97438049 103.93782043 C-113.97946733 104.85071718 -113.98455417 105.76361393 -113.98979515 106.70417422 C-114.00453004 109.78191018 -114.00499104 112.85948702 -114.00561523 115.93725586 C-114.01327162 118.13630996 -114.02181706 120.33536111 -114.03118896 122.53440857 C-114.04950625 127.27946613 -114.06152022 132.02448397 -114.06872749 136.7695713 C-114.08018431 144.2692509 -114.10562857 151.76884257 -114.13304138 159.26847839 C-114.16999991 169.7811052 -114.20070182 180.29373545 -114.22583008 190.80639648 C-114.22742738 191.47385164 -114.22902468 192.14130679 -114.23067039 192.82898786 C-114.23226928 193.49726855 -114.23386818 194.16554924 -114.23551553 194.85408086 C-114.25818701 204.32159087 -114.28282019 213.78909308 -114.30981445 223.2565918 C-114.3117106 223.92232634 -114.31360674 224.58806089 -114.31556035 225.27396921 C-114.34733893 236.37417955 -114.38309907 247.47437546 -114.42085594 258.57456702 C-114.44579856 266.03287011 -114.46522169 273.49116169 -114.48023808 280.94949114 C-114.49043486 285.5877299 -114.50458146 290.22595078 -114.51971436 294.8641758 C-114.52587576 297.01806213 -114.53033176 299.1719541 -114.53297234 301.32584763 C-114.53677833 304.26237502 -114.54658968 307.19882345 -114.55787659 310.1353302 C-114.55729739 311.41879616 -114.55729739 311.41879616 -114.55670649 312.72819072 C-114.5780233 316.69396129 -114.71876541 320.35577891 -115.70263672 324.22705078 C-116.03263672 324.22705078 -116.36263672 324.22705078 -116.70263672 324.22705078 C-116.74833483 295.16472335 -116.78369363 266.10239945 -116.80476738 237.04004323 C-116.80726857 233.60319282 -116.80985724 230.16634249 -116.8125 226.72949219 C-116.81302462 226.04532314 -116.81354924 225.36115408 -116.81408976 224.65625264 C-116.82277481 213.60147267 -116.83853424 202.54671365 -116.85694231 191.49194609 C-116.87569438 180.13525419 -116.88661508 168.77857776 -116.89081371 157.4218694 C-116.89341514 151.04866999 -116.89950579 144.675518 -116.91409683 138.30233383 C-116.92773613 132.29583511 -116.93184657 126.28940306 -116.92885208 120.28289032 C-116.92939941 118.08601392 -116.93333882 115.88913513 -116.94104767 113.69227219 C-117.04313305 83.0820778 -111.17657035 57.00561585 -89.70263672 34.22705078 C-88.81576172 33.26025391 -87.92888672 32.29345703 -87.01513672 31.29736328 C-63.00620424 6.10194286 -33.50617589 -0.11757398 0 0 Z " fill="#8F86E2" transform="translate(157.70263671875,40.77294921875)"/>
<path d="M0 0 C1.92717622 -0.00271814 3.8543514 -0.00628365 5.78152466 -0.01062012 C10.95414259 -0.01963999 16.12667964 -0.01624572 21.29929876 -0.00986195 C26.73193403 -0.00475775 32.16456291 -0.00950463 37.59719849 -0.01263428 C46.70022819 -0.01625679 55.80322526 -0.01151552 64.90625 -0.00195312 C75.43003011 0.00897401 85.95373298 0.00536821 96.47751129 -0.00560594 C105.53604255 -0.01467325 114.59455054 -0.01596819 123.65308487 -0.0107286 C129.05429804 -0.00761172 134.45547481 -0.00719278 139.85668564 -0.01380157 C144.92116055 -0.01956788 149.98553519 -0.01559135 155.04999924 -0.00401306 C156.90922377 -0.00136461 158.76845672 -0.00213471 160.62767792 -0.00653839 C163.16090676 -0.01198679 165.69381214 -0.0051689 168.22702026 0.00482178 C168.96571661 0.00036033 169.70441295 -0.00410111 170.46549404 -0.00869775 C174.14769418 0.0195604 176.89866785 0.22269095 180.02783203 2.25878906 C176.76633528 3.88953744 173.17069605 3.39155032 169.58712769 3.37904358 C168.26149345 3.38032522 168.26149345 3.38032522 166.90907872 3.38163275 C163.93025099 3.38328762 160.95147884 3.37776604 157.97265625 3.37231445 C155.8443095 3.37203256 153.71596266 3.37219036 151.58761597 3.37275696 C145.79452226 3.37304484 140.00144911 3.36714963 134.2083602 3.360183 C128.15983273 3.35394789 122.11130484 3.35334554 116.06277466 3.35215759 C104.60222968 3.34904474 93.1416942 3.34083197 81.68115342 3.3308081 C68.63661646 3.31964554 55.59207906 3.31413615 42.54753852 3.30911267 C15.70763108 3.29864933 -11.13226791 3.28105077 -37.97216797 3.25878906 C-37.97216797 2.92878906 -37.97216797 2.59878906 -37.97216797 2.25878906 C-25.26241774 0.57585649 -12.81229274 -0.03085833 0 0 Z " fill="#525CD1" transform="translate(179.97216796875,455.7412109375)"/>
<path d="M0 0 C0.66 0 1.32 0 2 0 C2 71.28 2 142.56 2 216 C1.01 215.34 0.02 214.68 -1 214 C-1.3719368 211.14821434 -1.3719368 211.14821434 -1.36749268 207.42294312 C-1.37076152 206.73891879 -1.37403036 206.05489446 -1.37739825 205.35014212 C-1.38471264 203.04489242 -1.37048788 200.74027004 -1.35644531 198.43505859 C-1.35723599 196.78539929 -1.35933265 195.13574016 -1.36264038 193.48608398 C-1.36779666 188.98357245 -1.35417583 184.48128775 -1.33711338 179.97881269 C-1.32204192 175.23292071 -1.32324979 170.4870313 -1.32244873 165.74111938 C-1.31874593 157.72922944 -1.30376066 149.71742457 -1.28125 141.70556641 C-1.25276984 131.55102606 -1.24206046 121.39655557 -1.2375679 111.2419796 C-1.23351491 102.40401543 -1.22099745 93.56606535 -1.20722103 84.72811174 C-1.20319886 81.94946228 -1.20023438 79.17081325 -1.19742584 76.39216232 C-1.16740734 50.91489737 -0.75013354 25.46630505 0 0 Z " fill="#4D53C8" transform="translate(457,142)"/>
<path d="M0 0 C73.26 0 146.52 0 222 0 C222 0.33 222 0.66 222 1 C217.71656548 1.81267131 213.65438825 2.13574746 209.29705811 2.16494751 C208.64777918 2.17059105 207.99850026 2.1762346 207.32954621 2.18204916 C205.16599384 2.19966503 203.00246373 2.2104397 200.83886719 2.22119141 C199.28052995 2.23241955 197.72219558 2.24405233 196.16386414 2.25605774 C191.92808481 2.28736719 187.69228971 2.31252728 183.45646191 2.3362546 C179.88868962 2.35678978 176.3209394 2.3803045 172.75318551 2.40379179 C164.28844236 2.45945429 155.82367929 2.51011184 147.35888672 2.55761719 C138.74014789 2.60606561 130.1214886 2.66242828 121.50282741 2.72303832 C114.03462185 2.7752746 106.56639479 2.82238074 99.09813237 2.86572587 C94.6702637 2.89146241 90.24242424 2.9188091 85.81459808 2.9510994 C66.55645924 3.0891522 47.31778123 3.01085597 28.06347656 2.56787109 C27.16415767 2.54809684 26.26483878 2.52832259 25.3382678 2.50794911 C22.7789297 2.4500593 20.21983094 2.38600659 17.66070557 2.31942749 C16.91551619 2.30243545 16.17032681 2.28544342 15.40255594 2.26793647 C10.22321189 2.12105901 5.14412377 1.62378048 0 1 C0 0.67 0 0.34 0 0 Z " fill="#867FDC" transform="translate(143,41)"/>
<path d="M0 0 C0.99 0.33 1.98 0.66 3 1 C2.46795456 1.52316299 1.93590912 2.04632599 1.38774109 2.58534241 C-3.63963241 7.53236217 -8.65717226 12.48910228 -13.6640749 17.45682621 C-16.23814543 20.01007696 -18.81577898 22.55949584 -21.40209961 25.1003418 C-23.90079774 27.55538151 -26.38941937 30.02024013 -28.87154198 32.492033 C-30.27561192 33.88518268 -31.68976721 35.2681443 -33.1040802 36.65089417 C-40.64071755 44.09304358 -40.64071755 44.09304358 -43.07421875 54.08984375 C-42.94660156 55.02957031 -42.81898438 55.96929687 -42.6875 56.9375 C-42.50767578 58.37416016 -42.50767578 58.37416016 -42.32421875 59.83984375 C-42.21722656 60.55269531 -42.11023438 61.26554687 -42 62 C-43.99609375 60.859375 -43.99609375 60.859375 -46 59 C-46.74237873 53.29452755 -45.84814262 47.52200476 -42.5625 42.75 C-41.716875 41.8425 -40.87125 40.935 -40 40 C-39.34 40 -38.68 40 -38 40 C-38 39.01 -38 38.02 -38 37 C-36.515 36.505 -36.515 36.505 -35 36 C-33.99357052 34.67151309 -32.99307821 33.33849671 -32 32 C-31.34 32 -30.68 32 -30 32 C-30 31.34 -30 30.68 -30 30 C-29.34 30 -28.68 30 -28 30 C-28 29.34 -28 28.68 -28 28 C-27.34 28 -26.68 28 -26 28 C-25.34 26.68 -24.68 25.36 -24 24 C-23.34 24 -22.68 24 -22 24 C-21.6596875 22.8553125 -21.6596875 22.8553125 -21.3125 21.6875 C-19.69988626 18.38548139 -18.14261291 17.7957788 -15 16 C-12.47471075 13.18610626 -10.53562186 10.45514919 -9 7 C-8.67 7 -8.34 7 -8 7 C-8 6.34 -8 5.68 -8 5 C-6.02 4.67 -4.04 4.34 -2 4 C-2 3.01 -2 2.02 -2 1 C-1.34 0.67 -0.68 0.34 0 0 Z " fill="#837FEC" transform="translate(174,196)"/>
<path d="M0 0 C0.99 0.33 1.98 0.66 3 1 C3 1.99 3 2.98 3 4 C4.32 4.66 5.64 5.32 7 6 C6.49152605 9.05084367 5.98164194 12.09179031 5.375 15.125 C5.02082265 17.84035967 5.11581894 19.44569917 6 22 C3.69 22 1.38 22 -1 22 C-1.24492187 22.59296875 -1.48984375 23.1859375 -1.7421875 23.796875 C-3.20952109 26.36698726 -4.72292225 27.54529966 -7.125 29.25 C-7.84945312 29.77078125 -8.57390625 30.2915625 -9.3203125 30.828125 C-9.87460938 31.21484375 -10.42890625 31.6015625 -11 32 C-11.66 31.67 -12.32 31.34 -13 31 C-12.08476562 30.11957031 -11.16953125 29.23914063 -10.2265625 28.33203125 C-9.02564498 27.15926024 -7.82514602 25.98606051 -6.625 24.8125 C-6.02171875 24.23435547 -5.4184375 23.65621094 -4.796875 23.06054688 C-1.0096445 19.33643689 1.56463283 16.380498 2.265625 10.9375 C2.23264723 6.84825678 1.86877294 3.73754589 0 0 Z " fill="#7D7BF2" transform="translate(200,199)"/>
<path d="M0 0 C0.66 0.99 1.32 1.98 2 3 C1.34 3 0.68 3 0 3 C0.165 3.763125 0.33 4.52625 0.5 5.3125 C1.24453809 9.31439223 1.31949505 10.52075742 -1 14 C-0.67619874 15.33568021 -0.34342449 16.66923011 0 18 C-0.66 18.66 -1.32 19.32 -2 20 C-2.64767793 22.57061311 -2.64767793 22.57061311 -3 25 C-2.34 25.33 -1.68 25.66 -1 26 C-1.66 26.66 -2.32 27.32 -3 28 C-3.37004294 30.22658154 -3.37004294 30.22658154 -3.4140625 32.7890625 C-3.45273437 33.73007813 -3.49140625 34.67109375 -3.53125 35.640625 C-3.5621875 36.62546875 -3.593125 37.6103125 -3.625 38.625 C-3.66367187 39.61757812 -3.70234375 40.61015625 -3.7421875 41.6328125 C-3.8366314 44.08835385 -3.92219875 46.5438841 -4 49 C-4.33 49 -4.66 49 -5 49 C-6.20639343 31.44769084 -5.76256018 16.84010306 0 0 Z " fill="#A79CEB" transform="translate(47,108)"/>
<path d="M0 0 C0.66 0 1.32 0 2 0 C2.43689082 6.88865066 -0.25840428 11.38322517 -4 17 C-6.875 19.6875 -6.875 19.6875 -9 21 C-11 17.25 -11 17.25 -11 15 C-9.68 14.67 -8.36 14.34 -7 14 C-7 11.36 -7 8.72 -7 6 C-4.69 5.34 -2.38 4.68 0 4 C0 2.68 0 1.36 0 0 Z " fill="#6670ED" transform="translate(447,395)"/>
<path d="M0 0 C2.31 0 4.62 0 7 0 C3.58634353 2.97178724 -0.11408709 4.26667371 -4.375 5.5625 C-5.0774585 5.77865967 -5.77991699 5.99481934 -6.50366211 6.2175293 C-15.54952013 8.89051578 -24.56813216 10.13083297 -34 10 C-31.01899976 7.01899976 -27.39349731 7.04509679 -23.375 6.4375 C-22.59253906 6.31181641 -21.81007813 6.18613281 -21.00390625 6.05664062 C-16.01394484 5.26635652 -11.01587199 4.60259332 -6 4 C-6 3.34 -6 2.68 -6 2 C-4.02 1.67 -2.04 1.34 0 1 C0 0.67 0 0.34 0 0 Z " fill="#8A93E2" transform="translate(392,449)"/>
<path d="M0 0 C0.66 0.99 1.32 1.98 2 3 C-2.25996989 8.27359617 -6.65486784 12.51474468 -12.1796875 16.45703125 C-14.27627769 17.9634868 -14.27627769 17.9634868 -15 21 C-12.525 21.99 -12.525 21.99 -10 23 C-10.33 23.99 -10.66 24.98 -11 26 C-13.31 24.02 -15.62 22.04 -18 20 C-17 17 -17 17 -14.875 15.3125 C-11.73854335 12.78969791 -9.32056745 10.02312053 -6.71484375 6.97265625 C-4.58448934 4.52202077 -2.33022931 2.2596163 0 0 Z " fill="#807EEC" transform="translate(186,231)"/>
<path d="M0 0 C0 0.33 0 0.66 0 1 C-2.12471175 1.3351658 -4.24977905 1.66807829 -6.375 2 C-7.55835938 2.185625 -8.74171875 2.37125 -9.9609375 2.5625 C-13 3 -13 3 -15 3 C-15.99 3.33 -16.98 3.66 -18 4 C-18 3.34 -18 2.68 -18 2 C-18.99 2 -19.98 2 -21 2 C-21.33 2.66 -21.66 3.32 -22 4 C-22.33 3.67 -22.66 3.34 -23 3 C-23.66 3.66 -24.32 4.32 -25 5 C-27.1640625 4.9765625 -27.1640625 4.9765625 -29.625 4.625 C-30.44226563 4.51414062 -31.25953125 4.40328125 -32.1015625 4.2890625 C-32.72804688 4.19367187 -33.35453125 4.09828125 -34 4 C-30.66834114 -0.2402931 -26.19773748 -0.08119877 -21.140625 -0.7265625 C-14.09198997 -1.33278621 -7.02619411 -0.62946533 0 0 Z " fill="#ABA0EC" transform="translate(152,42)"/>
<path d="M0 0 C1.32 0.99 2.64 1.98 4 3 C4.66 2.01 5.32 1.02 6 0 C8.97 0.495 8.97 0.495 12 1 C12 4 12 4 10.390625 5.640625 C9.68421875 6.17171875 8.9778125 6.7028125 8.25 7.25 C7.55390625 7.79140625 6.8578125 8.3328125 6.140625 8.890625 C4 10 4 10 1.796875 9.859375 C1.20390625 9.57578125 0.6109375 9.2921875 0 9 C-0.33 8.01 -0.66 7.02 -1 6 C-0.34 6 0.32 6 1 6 C0.67 4.02 0.34 2.04 0 0 Z " fill="#535FF3" transform="translate(409,432)"/>
<path d="M0 0 C0.66 0.33 1.32 0.66 2 1 C-3.66666667 6.66666667 -9.33333333 12.33333333 -15 18 C-17.125 17.625 -17.125 17.625 -19 17 C-18.0479279 15.99403703 -17.08812654 14.99538437 -16.125 14 C-15.32449219 13.1646875 -15.32449219 13.1646875 -14.5078125 12.3125 C-13 11 -13 11 -11 11 C-10.7525 10.4225 -10.505 9.845 -10.25 9.25 C-8.81700012 6.67060021 -7.21575324 4.93878408 -5 3 C-4.34 3 -3.68 3 -3 3 C-3 2.34 -3 1.68 -3 1 C-2.01 0.67 -1.02 0.34 0 0 Z " fill="#6165EC" transform="translate(365,263)"/>
<path d="M0 0 C4.35834901 0.51274694 7.95893419 1.34212685 12 3 C13.9924325 3.37593066 15.9918674 3.71979545 18 4 C18 4.66 18 5.32 18 6 C19.11375 5.95875 20.2275 5.9175 21.375 5.875 C25 6 25 6 27 8 C17.46906319 8.77803566 7.71562427 5.69955753 -1 2 C-0.67 1.34 -0.34 0.68 0 0 Z " fill="#8C8FE1" transform="translate(107,450)"/>
<path d="M0 0 C1.9375 0.75 1.9375 0.75 4 2 C4.75 4.125 4.75 4.125 5 6 C4.34 6 3.68 6 3 6 C3.51958285 10.37934119 4.05675742 14.68803391 5 19 C4.01 19 3.02 19 2 19 C1.46481117 16.9620493 0.94745907 14.91940991 0.4375 12.875 C0.14746094 11.73804688 -0.14257812 10.60109375 -0.44140625 9.4296875 C-1.01056927 5.93510616 -0.78666101 3.42796653 0 0 Z " fill="#8F8DF3" transform="translate(43,368)"/>
<path d="M0 0 C0.66 0 1.32 0 2 0 C1.50341703 5.66104589 0.45489316 9.87674471 -2 15 C-2.99 15 -3.98 15 -5 15 C-5.33 13.68 -5.66 12.36 -6 11 C-5.34 10.67 -4.68 10.34 -4 10 C-4.33 8.68 -4.66 7.36 -5 6 C-4.34 6 -3.68 6 -3 6 C-2.67 5.01 -2.34 4.02 -2 3 C-1.34 3 -0.68 3 0 3 C0 2.01 0 1.02 0 0 Z " fill="#4555EB" transform="translate(455,375)"/>
<path d="M0 0 C0.66 0 1.32 0 2 0 C4 2 4 2 4 6 C4.99 6.33 5.98 6.66 7 7 C6.87625 7.78375 6.7525 8.5675 6.625 9.375 C7.11421237 14.10405293 9.1780727 16.9263673 11.78515625 20.828125 C12.18605469 21.54484375 12.58695313 22.2615625 13 23 C12.67 23.66 12.34 24.32 12 25 C0 8.53191489 0 8.53191489 0 0 Z " fill="#ABADF2" transform="translate(47,389)"/>
<path d="M0 0 C6.625 0.75 6.625 0.75 10 3 C7.36 3 4.72 3 2 3 C2 3.66 2 4.32 2 5 C-1.63 5.66 -5.26 6.32 -9 7 C-8.34 6.67 -7.68 6.34 -7 6 C-6.34786708 3.97536745 -6.34786708 3.97536745 -6 2 C-2.25 0.875 -2.25 0.875 0 2 C0 1.34 0 0.68 0 0 Z " fill="#4654F5" transform="translate(384,448)"/>
<path d="M0 0 C7.15801225 5.82628904 13.52591766 12.4382985 20 19 C16.83214131 19 15.71896141 18.44444825 13 17 C12.01 16.67 11.02 16.34 10 16 C9.731875 15.0925 9.46375 14.185 9.1875 13.25 C7.67342662 9.10622022 5.44375666 7.67066843 2 5 C0.125 2.6875 0.125 2.6875 -1 1 C-0.67 0.67 -0.34 0.34 0 0 Z " fill="#7D7BEF" transform="translate(135,262)"/>
<path d="M0 0 C0.33 0 0.66 0 1 0 C1.75 2.6875 1.75 2.6875 2 6 C0.3125 8.625 0.3125 8.625 -2 11 C-2.70125 11.7425 -3.4025 12.485 -4.125 13.25 C-7.4293703 16.33407894 -9.70017844 16.10957257 -14.125 16.0625 C-15.22070312 16.05347656 -16.31640625 16.04445313 -17.4453125 16.03515625 C-18.70988281 16.01775391 -18.70988281 16.01775391 -20 16 C-20 15.67 -20 15.34 -20 15 C-19.35933594 14.99742187 -18.71867188 14.99484375 -18.05859375 14.9921875 C-12.28567192 14.73408369 -8.60828841 13.90523358 -4.40625 9.83203125 C-2.058202 6.7730465 -1.08046691 3.68629886 0 0 Z " fill="#6C71F1" transform="translate(245,323)"/>
<path d="M0 0 C0.99 0 1.98 0 3 0 C3.34327479 3.21327714 3.30215345 4.58875552 1.35546875 7.23828125 C0.64003906 7.92277344 -0.07539063 8.60726563 -0.8125 9.3125 C-1.52019531 10.00988281 -2.22789062 10.70726562 -2.95703125 11.42578125 C-5 13 -5 13 -8 13 C-8 11.02 -8 9.04 -8 7 C-5.69 6.34 -3.38 5.68 -1 5 C-0.67 3.35 -0.34 1.7 0 0 Z " fill="#585EEE" transform="translate(432,417)"/>
<path d="M0 0 C9.16595227 0.24236893 17.39678442 3.10735556 26 6 C24.38671875 7.10546875 24.38671875 7.10546875 22 8 C19.08203125 7.42578125 19.08203125 7.42578125 15.8125 6.3125 C14.67039062 5.93222656 13.52828125 5.55195312 12.3515625 5.16015625 C11.24554688 4.77730469 10.13953125 4.39445312 9 4 C7.2295486 3.41550851 5.45877515 2.8319904 3.6875 2.25 C2.470625 1.8375 1.25375 1.425 0 1 C0 0.67 0 0.34 0 0 Z " fill="#B1AFE5" transform="translate(369,42)"/>
<path d="M0 0 C0 4.13065187 -2.222114 6.1928731 -5 9 C-7.44806541 11.32512762 -8.52286616 11.97658627 -11.9453125 12.14453125 C-12.99460937 12.03496094 -14.04390625 11.92539062 -15.125 11.8125 C-16.17945313 11.71582031 -17.23390625 11.61914062 -18.3203125 11.51953125 C-21 11 -21 11 -23 9 C-22.28714844 9.04640625 -21.57429688 9.0928125 -20.83984375 9.140625 C-13.36413349 9.42234759 -9.15260603 8.72994892 -3.46484375 3.62109375 C-2.27033275 2.45320138 -1.12885035 1.23147311 0 0 Z " fill="#7075EC" transform="translate(329,297)"/>
<path d="M0 0 C0 4.35336165 -2.22071064 6.77602435 -5 10 C-7.7084497 11.83218656 -8.68560062 12 -12 12 C-12.33 12.66 -12.66 13.32 -13 14 C-12.14361098 9.27966528 -9.54763205 7.02867389 -6 4 C-4.36622358 2.94712186 -2.70818403 1.9272999 -1 1 C-0.67 0.67 -0.34 0.34 0 0 Z " fill="#5B62EA" transform="translate(343,285)"/>
<path d="M0 0 C1 3 1 3 0.515625 4.91015625 C-0.09260053 7.37531275 0.25266333 8.96367881 0.75 11.4375 C1.07421875 13.8046875 1.07421875 13.8046875 1 16 C-1.4375 19.0625 -1.4375 19.0625 -4 21 C-3.83242188 20.48566406 -3.66484375 19.97132813 -3.4921875 19.44140625 C-2.61411958 15.08591063 -3.10006778 10.63633552 -3.2578125 6.21484375 C-3 3 -3 3 -1.4921875 1.06640625 C-0.99976563 0.71449219 -0.50734375 0.36257812 0 0 Z " fill="#5B61EE" transform="translate(372,240)"/>
<path d="M0 0 C0.33 0.66 0.66 1.32 1 2 C-0.28062485 3.7074998 -1.61767557 5.37373596 -3 7 C-3.66 7 -4.32 7 -5 7 C-5 7.99 -5 8.98 -5 10 C-6.75 11.82421875 -6.75 11.82421875 -9 13.6875 C-10.11375 14.62142578 -10.11375 14.62142578 -11.25 15.57421875 C-12.11625 16.27998047 -12.11625 16.27998047 -13 17 C-13.66 16.67 -14.32 16.34 -15 16 C-11.24987792 11.54740548 -7.60936192 7.58505927 -3 4 C-1.23676495 1.87396815 -1.23676495 1.87396815 0 0 Z " fill="#CFD5FD" transform="translate(330,251)"/>
<path d="M0 0 C0.33 0 0.66 0 1 0 C1 2.64 1 5.28 1 8 C0.34 8 -0.32 8 -1 8 C-1 8.99 -1 9.98 -1 11 C-4 12 -4 12 -7 12 C-6.67 11.01 -6.34 10.02 -6 9 C-5.34 9 -4.68 9 -4 9 C-3.896875 8.443125 -3.79375 7.88625 -3.6875 7.3125 C-2.86410318 4.54289253 -1.59831722 2.39747583 0 0 Z " fill="#4653EE" transform="translate(456,367)"/>
<path d="M0 0 C1.91635217 -0.05423638 3.83314925 -0.09289963 5.75 -0.125 C7.35101563 -0.15980469 7.35101563 -0.15980469 8.984375 -0.1953125 C11.96139222 -0.0025005 13.55981848 0.32802377 16 2 C17.25 4.625 17.25 4.625 18 7 C17.0925 6.360625 16.185 5.72125 15.25 5.0625 C10.201216 2.11650851 4.7173757 2.18776275 -1 2 C-0.67 1.34 -0.34 0.68 0 0 Z " fill="#8582EE" transform="translate(182,191)"/>
<path d="M0 0 C0.99 1.32 1.98 2.64 3 4 C1.65620963 5.34379037 0.30180263 6.67703988 -1.0625 8 C-3.05175695 9.8525711 -3.05175695 9.8525711 -4 12 C-4.99 12 -5.98 12 -7 12 C-5.44298069 7.32894208 -2.91552627 3.91294315 0 0 Z " fill="#B4AAF4" transform="translate(61,83)"/>
<path d="M0 0 C0.33 0.99 0.66 1.98 1 3 C-2.49359465 6.59634744 -6.11098131 9.83451967 -10 13 C-10.66 12.67 -11.32 12.34 -12 12 C-8.04 8.04 -4.08 4.08 0 0 Z " fill="#8E8CF0" transform="translate(199,218)"/>
<path d="M0 0 C0 0.66 0 1.32 0 2 C-9.05607477 4.6635514 -9.05607477 4.6635514 -12 5 C-12.66 4.34 -13.32 3.68 -14 3 C-12.23358317 2.3012307 -10.46167336 1.61633417 -8.6875 0.9375 C-7.20830078 0.36322266 -7.20830078 0.36322266 -5.69921875 -0.22265625 C-3 -1 -3 -1 0 0 Z " fill="#BBB3F1" transform="translate(120,45)"/>
<path d="M0 0 C0.99 0.33 1.98 0.66 3 1 C3 1.66 3 2.32 3 3 C3.639375 3.268125 4.27875 3.53625 4.9375 3.8125 C7 5 7 5 8 8 C3.38486888 6.68139111 -0.09897612 4.78644563 -4 2 C-3.34 1.67 -2.68 1.34 -2 1 C-1.34 1.33 -0.68 1.66 0 2 C0 1.34 0 0.68 0 0 Z " fill="#9092ED" transform="translate(93,441)"/>
<path d="M0 0 C0 0.99 0 1.98 0 3 C-2.31 4.32 -4.62 5.64 -7 7 C-7 3 -7 3 -6 0 C-3.50907189 -1.24546405 -2.58919267 -0.7767578 0 0 Z " fill="#5C66EB" transform="translate(421,433)"/>
<path d="M0 0 C3.3125 0.5625 3.3125 0.5625 7 2 C8.5368579 4.29468783 9.1584126 6.32672237 10 9 C7 9 7 9 5.17578125 7.28515625 C4.56089844 6.55167969 3.94601563 5.81820313 3.3125 5.0625 C2.68988281 4.33160156 2.06726562 3.60070312 1.42578125 2.84765625 C0 1 0 1 0 0 Z " fill="#8080ED" transform="translate(60,415)"/>
<path d="M0 0 C0.66 0.99 1.32 1.98 2 3 C1.34 3 0.68 3 0 3 C0.165 3.763125 0.33 4.52625 0.5 5.3125 C1 8 1 8 1 11 C-1.5 13.6875 -1.5 13.6875 -4 16 C-3.71515154 14.26969709 -3.42180062 12.54079286 -3.125 10.8125 C-2.96257813 9.84957031 -2.80015625 8.88664062 -2.6328125 7.89453125 C-2.01960483 5.08967396 -1.14333657 2.62775253 0 0 Z " fill="#C3BCF0" transform="translate(47,108)"/>
<path d="M0 0 C0.66 1.32 1.32 2.64 2 4 C0.1875 5.5625 0.1875 5.5625 -2 7 C-2.99 6.67 -3.98 6.34 -5 6 C-4.67 4.35 -4.34 2.7 -4 1 C-2.68 0.67 -1.36 0.34 0 0 Z " fill="#555FF9" transform="translate(350,280)"/>
<path d="M0 0 C5.47932789 1.54545146 10.11429181 4.15543212 15 7 C15 7.33 15 7.66 15 8 C13.35 8 11.7 8 10 8 C9.67 7.01 9.34 6.02 9 5 C6.36 4.67 3.72 4.34 1 4 C0.67 2.68 0.34 1.36 0 0 Z " fill="#A0A1EE" transform="translate(395,49)"/>
<path d="M0 0 C1.68550367 3.37100733 -0.31136964 6.72014632 -1.4375 10.125 C-1.68048828 10.87910156 -1.92347656 11.63320312 -2.17382812 12.41015625 C-2.77595819 14.27557879 -3.38713463 16.13807683 -4 18 C-4.33 18 -4.66 18 -5 18 C-5.67090715 10.75420281 -3.58125682 6.24161903 0 0 Z " fill="#7071EF" transform="translate(240,224)"/>
<path d="M0 0 C2 3 2 3 2 5 C1.67 5.99 1.34 6.98 1 8 C-2.057952 6.26440562 -4.63379989 4.61527381 -7 2 C-4.69 2 -2.38 2 0 2 C0 1.34 0 0.68 0 0 Z " fill="#7677EA" transform="translate(85,432)"/>
<path d="M0 0 C0.66 0.99 1.32 1.98 2 3 C-0.31 4.98 -2.62 6.96 -5 9 C-5.66 8.34 -6.32 7.68 -7 7 C-4.69 4.69 -2.38 2.38 0 0 Z " fill="#8886F2" transform="translate(186,231)"/>
<path d="M0 0 C1.65 0 3.3 0 5 0 C3.7820245 3.65392651 2.85603494 3.95831699 -0.4375 5.75 C-1.64212891 6.42289062 -1.64212891 6.42289062 -2.87109375 7.109375 C-3.92490234 7.55023438 -3.92490234 7.55023438 -5 8 C-5.66 7.67 -6.32 7.34 -7 7 C-6.21625 6.5875 -5.4325 6.175 -4.625 5.75 C-1.94108344 3.9607223 -1.11901051 2.95011861 0 0 Z " fill="#8A8FEC" transform="translate(406,441)"/>
<path d="M0 0 C1.61189613 4.02974033 0.22409257 6.98769658 -1 11 C-1.36950465 13.32787927 -1.71352467 15.66045145 -2 18 C-2.33 18 -2.66 18 -3 18 C-3.10414253 12.24901786 -3.20116938 6.64549608 -2 1 C-1.34 0.67 -0.68 0.34 0 0 Z " fill="#7572EF" transform="translate(45,352)"/>
<path d="M0 0 C0.66 0.33 1.32 0.66 2 1 C-0.25740623 3.33524782 -2.2805761 5.18705073 -5 7 C-6.32 7 -7.64 7 -9 7 C-9 6.34 -9 5.68 -9 5 C-8.38125 4.896875 -7.7625 4.79375 -7.125 4.6875 C-4.63473516 4.12474627 -4.63473516 4.12474627 -3 1 C-2.01 0.67 -1.02 0.34 0 0 Z " fill="#4A55E4" transform="translate(404,442)"/>
<path d="M0 0 C5.75 1.875 5.75 1.875 8 3 C8 4.32 8 5.64 8 7 C8.66 7.33 9.32 7.66 10 8 C7 8 7 8 5.17578125 6.50390625 C4.56089844 5.86324219 3.94601563 5.22257812 3.3125 4.5625 C2.68988281 3.92441406 2.06726563 3.28632813 1.42578125 2.62890625 C0 1 0 1 0 0 Z " fill="#8181EE" transform="translate(69,425)"/>
<path d="M0 0 C0.66 0 1.32 0 2 0 C1.48594831 4.96916636 0.76615118 9.29026351 -1 14 C-1.33 14 -1.66 14 -2 14 C-2.21192221 8.80790596 -1.5912689 4.873261 0 0 Z " fill="#9098E5" transform="translate(455,375)"/>
<path d="M0 0 C0.33 0 0.66 0 1 0 C1 1.98 1 3.96 1 6 C1.66 6 2.32 6 3 6 C2.67 11.28 2.34 16.56 2 22 C1.67 22 1.34 22 1 22 C0.67 14.74 0.34 7.48 0 0 Z " fill="#B3AAF7" transform="translate(41,135)"/>
<path d="M0 0 C3.4375 0.8125 3.4375 0.8125 7 2 C8 5 8 5 7 8 C5.83035398 6.8572081 4.66435444 5.71068285 3.5 4.5625 C2.8503125 3.92441406 2.200625 3.28632813 1.53125 2.62890625 C0 1 0 1 0 0 Z " fill="#676CEB" transform="translate(351,224)"/>
<path d="M0 0 C0.33 0 0.66 0 1 0 C2.10228696 4.40914783 2.07654536 8.48382401 2 13 C0.5 11.9375 0.5 11.9375 -1 10 C-1.26641894 6.27013478 -1.1845131 3.55353929 0 0 Z " fill="#8C91E0" transform="translate(456,121)"/>
<path d="M0 0 C3.71888239 0.50712033 6.73454239 1.11608215 10 3 C6.6875 4.125 6.6875 4.125 3 5 C2.01 4.34 1.02 3.68 0 3 C0 2.01 0 1.02 0 0 Z " fill="#7572F6" transform="translate(368,43)"/>
<path d="M0 0 C2.33944736 0.28730055 4.6739143 0.61936779 7 1 C7.33 1.99 7.66 2.98 8 4 C8.66 4.33 9.32 4.66 10 5 C8.53984709 4.71758359 7.08190207 4.42373386 5.625 4.125 C4.81289062 3.96257812 4.00078125 3.80015625 3.1640625 3.6328125 C1 3 1 3 -1 1 C-0.67 0.67 -0.34 0.34 0 0 Z " fill="#9A9CEC" transform="translate(107,450)"/>
<path d="M0 0 C1.32 0.33 2.64 0.66 4 1 C4 1.66 4 2.32 4 3 C4.66 3 5.32 3 6 3 C6 3.99 6 4.98 6 6 C1.545 5.01 1.545 5.01 -3 4 C-2.34 3.67 -1.68 3.34 -1 3 C-0.67 2.01 -0.34 1.02 0 0 Z " fill="#5E62F8" transform="translate(118,449)"/>
<path d="M0 0 C5.61 0.33 11.22 0.66 17 1 C17 1.33 17 1.66 17 2 C12.71 2.66 8.42 3.32 4 4 C4 3.34 4 2.68 4 2 C2.68 1.34 1.36 0.68 0 0 Z " fill="#B4ABF6" transform="translate(135,41)"/>
<path d="M0 0 C4.29 0.66 8.58 1.32 13 2 C13.33 2.99 13.66 3.98 14 5 C13.34 5 12.68 5 12 5 C12 4.34 12 3.68 12 3 C11.34 3 10.68 3 10 3 C9.67 3.66 9.34 4.32 9 5 C9 4.34 9 3.68 9 3 C8.2575 3.2475 7.515 3.495 6.75 3.75 C5.8425 3.8325 4.935 3.915 4 4 C2.68 2.68 1.36 1.36 0 0 Z " fill="#595FF0" transform="translate(303,306)"/>
<path d="M0 0 C3.26460973 1.80412643 4.88929795 2.83394693 7 6 C6.01 6.495 6.01 6.495 5 7 C5 6.34 5 5.68 5 5 C4.01 5.33 3.02 5.66 2 6 C1.34 5.67 0.68 5.34 0 5 C0 3.35 0 1.7 0 0 Z " fill="#7C7DEC" transform="translate(418,63)"/>
<path d="M0 0 C0.99 0 1.98 0 3 0 C3.3125 2.25 3.3125 2.25 3 5 C0.5 7.3125 0.5 7.3125 -2 9 C-1.855625 8.443125 -1.71125 7.88625 -1.5625 7.3125 C-0.97230872 4.88615805 -0.476571 2.45093655 0 0 Z " fill="#5B65E5" transform="translate(432,417)"/>
<path d="M0 0 C0.99 0.495 0.99 0.495 2 1 C2.6328125 3.06640625 2.6328125 3.06640625 3.125 5.5625 C3.29257812 6.38878906 3.46015625 7.21507812 3.6328125 8.06640625 C3.75398438 8.70449219 3.87515625 9.34257812 4 10 C3.01 10 2.02 10 1 10 C0.67 6.7 0.34 3.4 0 0 Z " fill="#9D9DE6" transform="translate(44,377)"/>
<path d="M0 0 C0.33 0.66 0.66 1.32 1 2 C-0.98 4.97 -0.98 4.97 -3 8 C-4.32 7.67 -5.64 7.34 -7 7 C-4.69 4.69 -2.38 2.38 0 0 Z " fill="#DADBFE" transform="translate(142,231)"/>
<path d="M0 0 C2.375 -0.125 2.375 -0.125 5 0 C7 2 7 2 7 5 C4.11424181 4.60196439 3.17810487 4.20990931 1.25 1.9375 C0.8375 1.298125 0.425 0.65875 0 0 Z " fill="#666BEB" transform="translate(344,217)"/>
<path d="M0 0 C3 1 3 1 4.75 3.9375 C5.1625 4.948125 5.575 5.95875 6 7 C5.67 7.66 5.34 8.32 5 9 C4.34 9 3.68 9 3 9 C3 7.35 3 5.7 3 4 C2.01 4 1.02 4 0 4 C0 2.68 0 1.36 0 0 Z " fill="#9A9EEC" transform="translate(445,96)"/>
<path d="M0 0 C4.875 3.625 4.875 3.625 6 7 C4.68 7 3.36 7 2 7 C1.34 4.69 0.68 2.38 0 0 Z " fill="#8082EC" transform="translate(431,75)"/>
<path d="M0 0 C1.32 0 2.64 0 4 0 C4 0.99 4 1.98 4 3 C2.02 3.33 0.04 3.66 -2 4 C-1.34 2.68 -0.68 1.36 0 0 Z " fill="#565FF7" transform="translate(328,300)"/>
<path d="M0 0 C2.46278801 2.46278801 2.99771255 4.70676982 4 8 C3.34 8 2.68 8 2 8 C0.7109375 6.46875 0.7109375 6.46875 -0.625 4.5 C-1.29402344 3.52546875 -1.29402344 3.52546875 -1.9765625 2.53125 C-2.31429687 2.0259375 -2.65203125 1.520625 -3 1 C-2.01 0.67 -1.02 0.34 0 0 Z " fill="#7777ED" transform="translate(179,256)"/>
<path d="M0 0 C-2.46153846 3.81538462 -2.46153846 3.81538462 -5.1875 4.75 C-5.785625 4.8325 -6.38375 4.915 -7 5 C-6.67 3.35 -6.34 1.7 -6 0 C-3 -1 -3 -1 0 0 Z " fill="#998CF5" transform="translate(54,108)"/>
<path d="M0 0 C4.54805635 -0.17835515 7.8794254 0.00214565 12 2 C10.5 3.1875 10.5 3.1875 8 4 C5.21175762 3.27101296 2.62334908 2.1843275 0 1 C0 0.67 0 0.34 0 0 Z " fill="#A6A2E9" transform="translate(383,46)"/>
<path d="M0 0 C0.33 0.99 0.66 1.98 1 3 C-0.28965176 4.37562854 -1.62689293 5.70766393 -3 7 C-3.66 7 -4.32 7 -5 7 C-5 7.66 -5 8.32 -5 9 C-5.66 8.67 -6.32 8.34 -7 8 C-4.69 5.36 -2.38 2.72 0 0 Z " fill="#C9CFFD" transform="translate(306,275)"/>
<path d="M0 0 C2.79872437 2.52788007 4.45773019 4.20411134 5 8 C4.01 8 3.02 8 2 8 C0.23537317 4.91190305 0 3.76687864 0 0 Z " fill="#5F64E1" transform="translate(440,88)"/>
<path d="M0 0 C1.98 1.65 3.96 3.3 6 5 C4.68 5.99 3.36 6.98 2 8 C1.33333333 5.33333333 0.66666667 2.66666667 0 0 Z " fill="#8080F0" transform="translate(425,69)"/>
<path d="M0 0 C0.99 0.33 1.98 0.66 3 1 C-1.75 5.875 -1.75 5.875 -4 7 C-4 6.01 -4 5.02 -4 4 C-3.34 4 -2.68 4 -2 4 C-1.34 2.68 -0.68 1.36 0 0 Z " fill="#CCCFFE" transform="translate(352,271)"/>
<path d="M0 0 C1.32 1.32 2.64 2.64 4 4 C3.34 4.66 2.68 5.32 2 6 C1.35232207 8.57061311 1.35232207 8.57061311 1 11 C0.67 11 0.34 11 0 11 C0 7.37 0 3.74 0 0 Z " fill="#968AE4" transform="translate(42,130)"/>
<path d="M0 0 C0.99 0 1.98 0 3 0 C3 0.66 3 1.32 3 2 C2.34 2 1.68 2 1 2 C0.67 3.32 0.34 4.64 0 6 C-0.99 6 -1.98 6 -3 6 C-1.125 1.125 -1.125 1.125 0 0 Z " fill="#9B8DF3" transform="translate(105,49)"/>
<path d="M0 0 C0.33 0 0.66 0 1 0 C1.125 6.625 1.125 6.625 0 10 C-0.66 10 -1.32 10 -2 10 C-1.46274105 6.62294375 -0.88935377 3.303314 0 0 Z " fill="#797BF3" transform="translate(281,196)"/>
<path d="M0 0 C2.12508244 3.18762365 2.5020163 5.26512223 3 9 C0 7 0 7 -0.75 4.5 C-1 2 -1 2 0 0 Z " fill="#A1A5E7" transform="translate(453,111)"/>
<path d="M0 0 C3.3 0 6.6 0 10 0 C8.35 1.32 6.7 2.64 5 4 C4.67 3.34 4.34 2.68 4 2 C2.68 1.34 1.36 0.68 0 0 Z " fill="#8F83E0" transform="translate(130,42)"/>
<path d="" fill="#FFFFFF" transform="translate(0,0)"/>
<path d="" fill="#FFFFFF" transform="translate(0,0)"/>
<path d="" fill="#FFFFFF" transform="translate(0,0)"/>
<path d="" fill="#FFFFFF" transform="translate(0,0)"/>
<path d="" fill="#FFFFFF" transform="translate(0,0)"/>
<path d="" fill="#FFFFFF" transform="translate(0,0)"/>
<path d="" fill="#FFFFFF" transform="translate(0,0)"/>
<path d="" fill="#FFFFFF" transform="translate(0,0)"/>
<path d="" fill="#FFFFFF" transform="translate(0,0)"/>
<path d="" fill="#FFFFFF" transform="translate(0,0)"/>
<path d="" fill="#FFFFFF" transform="translate(0,0)"/>
<path d="" fill="#FFFFFF" transform="translate(0,0)"/>
<path d="" fill="#FFFFFF" transform="translate(0,0)"/>
<path d="" fill="#FFFFFF" transform="translate(0,0)"/>
<path d="" fill="#FFFFFF" transform="translate(0,0)"/>
<path d="" fill="#FFFFFF" transform="translate(0,0)"/>
<path d="" fill="#FFFFFF" transform="translate(0,0)"/>
<path d="" fill="#FFFFFF" transform="translate(0,0)"/>
<path d="" fill="#FFFFFF" transform="translate(0,0)"/>
<path d="" fill="#FFFFFF" transform="translate(0,0)"/>
<path d="" fill="#FFFFFF" transform="translate(0,0)"/>
<path d="" fill="#FFFFFF" transform="translate(0,0)"/>
<path d="" fill="#FFFFFF" transform="translate(0,0)"/>
<path d="" fill="#FFFFFF" transform="translate(0,0)"/>
<path d="" fill="#FFFFFF" transform="translate(0,0)"/>
<path d="" fill="#FFFFFF" transform="translate(0,0)"/>
<path d="" fill="#FFFFFF" transform="translate(0,0)"/>
<path d="" fill="#FFFFFF" transform="translate(0,0)"/>
<path d="" fill="#FFFFFF" transform="translate(0,0)"/>
<path d="" fill="#FFFFFF" transform="translate(0,0)"/>
<path d="" fill="#FFFFFF" transform="translate(0,0)"/>
</svg>
